<svg xmlns="http://www.w3.org/2000/svg" width="84" height="94" viewBox="0 0 84 94">
  <g fill="none" fill-rule="evenodd">
    <path fill="#536276" d="M45.2076363,57.0818343 L45.2073005,78.2657929 C46.0800187,78.6471415 46.8715498,79.179695 47.548779,79.8303387 L69.6882622,66.6581408 L72.5515034,71.4708164 L49.9769929,84.9021565 C49.9968651,85.1321246 50.0070081,85.3648754 50.0070081,85.5999951 C50.0070081,90.0182724 46.4252853,93.5999951 42.0070081,93.5999951 C37.5887299,93.5999951 34.0070081,90.0182724 34.0070081,85.5999951 C34.0070081,85.3155979 34.0218482,85.0346667 34.0507962,84.7579337 L12.3749867,71.8617819 L15.2382278,67.0491063 L36.5639437,79.7370949 C37.4235091,78.9387146 38.4589132,78.327063 39.6056244,77.9666717 L39.6069235,57.2156586 C40.418085,57.4643431 41.2937342,57.5999963 42.2070076,57.5999963 C43.2726716,57.5999963 44.2871078,57.4152953 45.2076363,57.0818343 Z M42.0070076,82.3999949 C40.2396965,82.3999949 38.8070078,83.8326836 38.8070078,85.5999947 C38.8070078,87.3673058 40.2396965,88.7999945 42.0070076,88.7999945 C43.7743187,88.7999945 45.2070074,87.3673058 45.2070074,85.5999947 C45.2070074,83.8326836 43.7743187,82.3999949 42.0070076,82.3999949 Z M31.0123566,10.6507743 C31.5167653,12.5060489 32.4700622,14.1764259 33.7483909,15.5380488 L16.3045272,25.9160647 C16.3719634,26.3340857 16.4070101,26.7629494 16.4070101,27.1999986 C16.4070101,28.0478262 16.2751233,28.8648501 16.0307468,29.6316733 L38.0032256,42.7045595 L35.549019,46.82971 L13.2533832,33.5654885 C12.7483803,33.9505622 12.1961867,34.2769079 11.6069919,34.5343364 L11.6070094,63.199996 L6.00700975,63.199996 L6.00682971,34.8337001 C2.76123719,33.8142334 0.407010082,30.7820451 0.407010082,27.1999986 C0.407010082,22.7817204 3.98873187,19.1999986 8.40701008,19.1999986 C10.3545185,19.1999986 12.1394919,19.895895 13.5268327,21.0525906 L31.0123566,10.6507743 Z M53.3444126,10.853954 L70.4871831,21.0525906 C71.8745238,19.895895 73.6594972,19.1999986 75.6070061,19.1999986 C80.0252833,19.1999986 83.6070061,22.7817204 83.6070061,27.1999986 C83.6070061,30.4805154 81.632445,33.2998497 78.8069879,34.5343364 L78.8070054,61.5999961 L73.2070057,61.5999961 L73.2068257,34.8337001 C72.2514564,34.5336109 71.3733215,34.059125 70.6097317,33.4475533 L64.5616891,37.0442851 L62.2156891,32.8552851 L67.9293975,29.4555955 C67.7195678,28.740216 67.6070061,27.9832524 67.6070061,27.1999986 C67.6070061,26.7629494 67.6420527,26.3340857 67.709489,25.9160647 L50.5202542,15.6901211 C51.8240028,14.3506425 52.8067872,12.6971885 53.3444126,10.853954 Z M52.5866891,38.5832851 L54.9326891,42.7732851 L48.1148958,46.82971 L45.6606891,42.7045595 L52.5866891,38.5832851 Z M59.4646891,34.4912851 L61.8106891,38.6812851 L57.6846891,41.1362851 L55.3386891,36.9462851 L59.4646891,34.4912851 Z M8.40700961,23.9999983 C6.63969851,23.9999983 5.2070098,25.432687 5.2070098,27.1999981 C5.2070098,28.9673092 6.63969851,30.3999979 8.40700961,30.3999979 C10.1743207,30.3999979 11.6070094,28.9673092 11.6070094,27.1999981 C11.6070094,25.432687 10.1743207,23.9999983 8.40700961,23.9999983 Z M75.6070056,23.9999983 C73.8396945,23.9999983 72.4070058,25.432687 72.4070058,27.1999981 C72.4070058,28.9673092 73.8396945,30.3999979 75.6070056,30.3999979 C77.3743167,30.3999979 78.8070054,28.9673092 78.8070054,27.1999981 C78.8070054,25.432687 77.3743167,23.9999983 75.6070056,23.9999983 Z"/>
    <path fill="#E75442" d="M42.0070081,-2.38418579e-07 C46.4252853,-2.38418579e-07 50.0070081,3.58172155 50.0070081,7.99999976 C50.0070081,10.1659767 49.1462251,12.1309074 47.7480825,13.5713683 L73.464863,59.4900239 C74.1466514,59.3010058 74.8650327,59.1999962 75.6070061,59.1999962 C80.0252833,59.1999962 83.6070061,62.781718 83.6070061,67.1999962 C83.6070061,71.6182735 80.0252833,75.1999962 75.6070061,75.1999962 C71.1887279,75.1999962 67.6070061,71.6182735 67.6070061,67.1999962 C67.6070061,66.6892167 67.6548749,66.1896176 67.7463711,65.7054402 L46.668982,53.167001 C45.4336137,53.9479733 43.9695937,54.3999975 42.3999979,54.3999975 C40.6711824,54.3999975 39.0704483,53.8516155 37.7622539,52.9193098 L16.267645,65.7054402 C16.3591413,66.1896176 16.4070101,66.6892167 16.4070101,67.1999962 C16.4070101,71.6182735 12.8252873,75.1999962 8.40701008,75.1999962 C3.98873187,75.1999962 0.407010082,71.6182735 0.407010082,67.1999962 C0.407010082,62.781718 3.98873187,59.1999962 8.40701008,59.1999962 C9.1708119,59.1999962 9.90961316,59.3070365 10.6092314,59.5069347 L20.5884052,41.5034548 L24.7154052,43.9584548 L15.5050101,60.5739998 L34.8537915,49.0626381 C34.5861386,48.3040804 34.4296239,47.4930742 34.4038048,46.6491768 L34.3999979,46.3999975 C34.3999979,41.9817193 37.9817197,38.3999975 42.3999979,38.3999975 C46.8182752,38.3999975 50.3999979,41.9817193 50.3999979,46.3999975 C50.3999979,47.478016 50.1867728,48.5062332 49.8001963,49.4447753 L68.6010101,60.6289998 L43.526663,15.8558499 C43.1135932,15.9352824 42.6892205,15.9829442 42.2561874,15.9961929 L42.0070081,15.9999998 C41.4259346,15.9999998 40.8593305,15.9380488 40.3134404,15.8203915 L30.0514052,34.3334548 L25.9244052,31.8774548 L36.1431744,13.4420587 C34.8175767,12.0143836 34.0070081,10.1018508 34.0070081,7.99999976 C34.0070081,3.58172155 37.5887299,-2.38418579e-07 42.0070081,-2.38418579e-07 Z M8.40700961,63.9999959 C6.63969851,63.9999959 5.2070098,65.4326847 5.2070098,67.1999958 C5.2070098,68.9673069 6.63969851,70.3999956 8.40700961,70.3999956 C10.1743207,70.3999956 11.6070094,68.9673069 11.6070094,67.1999958 C11.6070094,65.4326847 10.1743207,63.9999959 8.40700961,63.9999959 Z M75.6070056,63.9999959 C73.8396945,63.9999959 72.4070058,65.4326847 72.4070058,67.1999958 C72.4070058,68.9673069 73.8396945,70.3999956 75.6070056,70.3999956 C77.3743167,70.3999956 78.8070054,68.9673069 78.8070054,67.1999958 C78.8070054,65.4326847 77.3743167,63.9999959 75.6070056,63.9999959 Z M42.3999975,43.1999972 C40.6326864,43.1999972 39.1999977,44.6326859 39.1999977,46.399997 C39.1999977,48.1673081 40.6326864,49.5999968 42.3999975,49.5999968 C44.1673086,49.5999968 45.5999973,48.1673081 45.5999973,46.399997 C45.5999973,44.6326859 44.1673086,43.1999972 42.3999975,43.1999972 Z M42.0070076,4.79999948 C40.2396965,4.79999948 38.8070078,6.23268819 38.8070078,7.99999928 C38.8070078,9.76731038 40.2396965,11.1999991 42.0070076,11.1999991 C43.7743187,11.1999991 45.2070074,9.76731038 45.2070074,7.99999928 C45.2070074,6.23268819 43.7743187,4.79999948 42.0070076,4.79999948 Z"/>
  </g>
</svg>
