<svg xmlns="http://www.w3.org/2000/svg" width="35" height="39" viewBox="0 0 35 39">
  <g fill="none" fill-rule="evenodd">
    <path fill="#58748F" d="M15.7483969,24.2642451 C16.2867695,24.4160534 16.8786797,24.5 17.5,24.5 C17.9339033,24.5 18.3534632,24.4590591 18.7504621,24.3826555 L18.7504992,32.8231457 C18.9179253,32.9119782 19.0767354,33.0148942 19.2253503,33.1303146 L28.6640808,27.5149464 L30.19796,30.0931657 L20.4914284,35.8685688 C20.4144127,37.6109999 18.9774094,39 17.2159877,39 C15.6112359,39 14.2757581,37.8471007 13.9926464,36.324394 L5.00632511,30.9769976 L6.54020437,28.3987784 L14.9181539,33.382559 C15.1614317,33.1435112 15.4418392,32.9421273 15.7499319,32.7878519 L15.7483969,24.2642451 Z M13.476541,7.44538008 L6.70928761,11.4723006 C6.71914338,11.5758338 6.72418447,11.6807708 6.72418447,11.7868852 C6.72418447,11.8595617 6.72181984,11.9316859 6.71716332,12.003185 L16.4233781,17.7786489 L14.8894988,20.3568681 L5.17165525,14.5749181 C4.95144621,14.7115461 4.71385429,14.8228126 4.4629599,14.904637 L4.46188939,26.5409836 L1.46188939,26.5409836 L1.46229328,14.3979896 C0.675035988,13.7991245 0.166807421,12.8523565 0.166807421,11.7868852 C0.166807421,9.97611557 1.63472627,8.50819672 3.44549595,8.50819672 C4.04278703,8.50819672 4.60277451,8.66791245 5.08508015,8.94696568 L12.1545894,4.74140112 C12.3092469,5.78186639 12.7844447,6.71773996 13.476541,7.44538008 Z M22.0656562,4.58914508 L29.3698415,8.93381287 C29.8469266,8.66289951 30.3986367,8.50819672 30.9864796,8.50819672 C32.7972492,8.50819672 34.2651681,9.97611557 34.2651681,11.7868852 C34.2651681,13.2424796 33.3166265,14.4765302 32.0039435,14.904637 L32.002873,25.8852459 L29.002873,25.8852459 L29.0028074,14.620882 L27.4597633,15.5388504 L25.9937633,12.9208504 L27.7108074,11.898882 L27.707791,11.7868852 C27.707791,11.6722407 27.7136752,11.5589705 27.7251579,11.4473601 L20.8214452,7.33935574 C21.4929377,6.5915287 21.9422869,5.64017953 22.0656562,4.58914508 Z M20.8357633,15.9898504 L22.3017633,18.6078504 L19.4996426,20.2756415 L17.9657633,17.6974222 L20.8357633,15.9898504 Z"/>
    <path fill="#E85442" d="M17.2159877,0.639344262 C19.0267574,0.639344262 20.4946763,2.10726312 20.4946763,3.91803279 C20.4946763,4.41835597 20.3826095,4.89250456 20.1822083,5.31674618 L31.1536463,24.9058271 C32.8867367,24.9928625 34.2651681,26.4256202 34.2651681,28.1803279 C34.2651681,29.9910975 32.7972492,31.4590164 30.9864796,31.4590164 C29.1757099,31.4590164 27.707791,29.9910975 27.707791,28.1803279 C27.707791,28.0297773 27.7179381,27.8815967 27.7375856,27.7364326 L18.9706255,22.5217828 C18.4988579,22.7846565 17.9554438,22.9344262 17.3770492,22.9344262 C16.889937,22.9344262 16.4276354,22.8281996 16.012046,22.6376478 L6.72380742,28.1623443 L6.72418447,28.1803279 C6.72418447,29.9286572 5.35575596,31.3573729 3.6315478,31.4538262 L3.44549595,31.4590164 C1.63472627,31.4590164 0.166807421,29.9910975 0.166807421,28.1803279 C0.166807421,26.3695582 1.63472627,24.9016393 3.44549595,24.9016393 C3.51913482,24.9016393 3.59220668,24.904067 3.66463585,24.9088467 L7.58772738,17.8301457 L10.1607274,19.3761457 L7.47180742,24.2273443 L14.1524084,20.2517882 C14.1277989,20.1177945 14.1113356,19.9809508 14.1035509,19.8417896 L14.0983607,19.6557377 C14.0983607,17.844968 15.5662795,16.3770492 17.3770492,16.3770492 C19.1878189,16.3770492 20.6557377,17.844968 20.6557377,19.6557377 C20.6557377,19.7792536 20.6489077,19.9011742 20.6356048,20.0211425 L27.1478074,23.8953443 L17.7707459,7.14998365 C17.6499672,7.17056683 17.5269368,7.18454428 17.4020396,7.19153111 L17.2159877,7.19672131 C17.116219,7.19672131 17.017491,7.19226511 16.919992,7.18354088 L13.0717274,14.1251457 L10.4987274,12.5791457 L14.3835817,5.57053501 C14.0998837,5.0853219 13.9372992,4.52066416 13.9372992,3.91803279 C13.9372992,2.10726312 15.4052181,0.639344262 17.2159877,0.639344262 Z"/>
  </g>
</svg>
