<svg xmlns="http://www.w3.org/2000/svg" width="167" height="30" viewBox="0 0 167 30">
  <path fill="#DFDFDF" d="M30.5583131 6.42848916C32.810844 6.42848916 34.6830775 7.24759131 36.1750135 8.85654195 37.6669496 10.4654926 38.3982908 12.4547407 38.3982908 14.7950325 38.3982908 17.1353244 37.6376959 19.1245724 36.1457599 20.7335231 34.6538238 22.3424737 32.7815904 23.1615759 30.5290595 23.1615759 28.569065 23.1615759 26.9016071 22.4302347 25.5266857 20.9382986L25.5266857 20.9382986 25.5266857 28.3740957C25.5266857 28.904289 25.0968791 29.3340956 24.5666858 29.3340956L24.5666858 29.3340956 22.3619212 29.3340956C21.8317279 29.3340956 21.4019213 28.904289 21.4019213 28.3740957L21.4019213 28.3740957 21.4019213 7.79804012C21.4019213 7.26784682 21.8317279 6.83804023 22.3619212 6.83804023L22.3619212 6.83804023 24.5374321 6.83804023C25.0676254 6.83804023 25.497432 7.26784682 25.497432 7.79804012L25.497432 7.79804012 25.497432 8.79803466C26.8723535 7.21833766 28.5398114 6.42848916 30.5583131 6.42848916zM30.2286604 10.2607171C28.9538646 10.2607171 27.9108498 10.6799845 27.099616 11.5185194 26.2883823 12.3570542 25.8827654 13.3912473 25.8827654 14.6210984 25.8827654 15.8509495 26.2883823 16.8851426 27.099616 17.7236774 27.9108498 18.5622123 28.9538646 18.9814797 30.2286604 18.9814797 31.5324289 18.9814797 32.5754437 18.5622123 33.3866775 17.7236774 34.1979112 16.8851426 34.6035281 15.8509495 34.6035281 14.6210984 34.6035281 13.3912473 34.1979112 12.3570542 33.3866775 11.5185194 32.5754437 10.6799845 31.5324289 10.2607171 30.2286604 10.2607171zM48.6164104 6.39923551C51.1029705 6.39923551 53.1507259 7.21833766 54.7596765 8.85654195 56.3686272 10.4654926 57.1584757 12.4547407 57.1584757 14.7950325 57.1584757 17.164578 56.3686272 19.1538261 54.7596765 20.7627767 53.1507259 22.3717274 51.1029705 23.1908295 48.6164104 23.1908295 46.1298504 23.1908295 44.082095 22.3717274 42.4731443 20.7627767 40.8641937 19.1538261 40.0743452 17.164578 40.0743452 14.7950325 40.0743452 12.4547407 40.8641937 10.4654926 42.4731443 8.85654195 44.082095 7.21833766 46.1298504 6.39923551 48.6164104 6.39923551zM48.5594909 10.2607171C47.3177929 10.2607171 46.2782318 10.6813326 45.4408076 11.5225637 44.6033833 12.3637949 44.1991096 13.4013133 44.1991096 14.6070779 44.1991096 15.8128425 44.6033833 16.8503609 45.4408076 17.7196331 46.2782318 18.5608642 47.3177929 18.9814797 48.5594909 18.9814797 49.8011889 18.9814797 50.8118733 18.5608642 51.6492976 17.7196331 52.4867218 16.8503609 52.9198723 15.8128425 52.9198723 14.6070779 52.9198723 13.4013133 52.4867218 12.3637949 51.6492976 11.5225637 50.8118733 10.6813326 49.8011889 10.2607171 48.5594909 10.2607171zM64.5768416 23.1908295C66.4783287 23.1908295 68.028772 22.7227711 69.1696643 21.7574007 70.3398102 20.7920304 70.9248832 19.5633771 70.9248832 18.0714411 70.9248832 16.3162222 70.0180201 14.9705544 68.2335476 14.0344377 67.7947429 13.8004085 66.5075823 13.2738428 64.4013197 12.4839943 63.4652029 12.1622042 62.9971446 11.6941458 62.9971446 11.0213119 62.9971446 10.2899707 63.7284858 9.6756441 64.8108708 9.6756441 66.1272849 9.6756441 67.3559381 10.2022098 68.4675768 11.2553411L70.5153321 8.59325912C69.0526497 7.07206942 67.1804162 6.31147457 64.9278853 6.31147457 63.1434128 6.31147457 61.6807304 6.75027929 60.5983454 7.65714238 59.5159605 8.56400547 58.9601411 9.70489775 58.9601411 11.1090729 58.9601411 12.9813063 59.8670042 14.3562278 61.7099841 15.2338372 62.0610278 15.4093591 62.7338617 15.7018956 63.7577394 16.082193 64.7816171 16.4624904 65.3959437 16.6965196 65.6592265 16.8135342 66.4198214 17.164578 66.8001188 17.6326364 66.8001188 18.1884557 66.8001188 19.0953188 65.8640021 19.738899 64.6060952 19.738899 62.9971446 19.738899 61.3296866 18.8905432 60.1887944 17.5156218L57.9947708 20.1191965C59.6037214 22.1669518 61.797745 23.1908295 64.5768416 23.1908295zM80.1776325 23.1615759C82.0206123 23.1615759 83.5710556 22.7227711 84.8874698 21.8451617L83.6588166 18.5980068C82.6934462 19.1538261 81.7865831 19.4171089 80.9967346 19.4171089 79.5047985 19.4171089 78.7442037 18.4809922 78.7442037 16.6087587L78.7442037 10.2899707 83.0498605 10.2899707C83.5800538 10.2899707 84.0098603 9.86016412 84.0098603 9.32997082L84.0098603 7.79804012C84.0098603 7.26784682 83.5800538 6.83804023 83.0498605 6.83804023L78.7442037 6.83804023 78.7442037 6.83804023 78.7442037 2.15208604C78.7442037 1.62189275 78.3143971 1.19208616 77.7842038 1.19208616L75.6086929 1.19208616C75.0784996 1.19208616 74.648693 1.62189275 74.648693 2.15208604L74.648693 6.83804023 74.648693 6.83804023 72.9758645 6.83804023C72.4456712 6.83804023 72.0158646 7.26784682 72.0158646 7.79804012L72.0158646 9.32997082C72.0158646 9.86016412 72.4456712 10.2899707 72.9758645 10.2899707L74.6194393 10.2899707 74.6194393 10.2899707 74.6194393 16.8720415C74.6194393 20.9968059 76.5209264 23.1615759 80.1776325 23.1615759zM90.9722286 21.8212785L90.9722286 1.50850579C90.9722286.97831249 90.542422.548505901 90.0122287.548505901L87.8074641.548505901C87.2772708.548505901 86.8474642.97831249 86.8474642 1.50850579L86.8474642 21.8212785C86.8474642 22.3514718 87.2772708 22.7812784 87.8074641 22.7812784L90.0122287 22.7812784C90.542422 22.7812784 90.9722286 22.3514718 90.9722286 21.8212785zM101.374467 6.42848916C103.685505 6.42848916 105.616246 7.15983036 107.108182 8.59325912 108.600118 10.0266879 109.360713 11.9574286 109.360713 14.4439887 109.360713 14.999808 109.302205 15.6141347 109.214444 16.2577149L109.214444 16.2577149 97.2497022 16.2577149C97.8347752 18.5102458 99.3852185 19.6511381 101.901032 19.6511381 103.626997 19.6511381 105.674753 18.9783042 107.049674 18.0421874L107.049674 18.0421874 108.687879 20.9382986C106.669377 22.400981 104.358339 23.1323222 101.72551 23.1323222 98.9171601 23.1323222 96.7816438 22.3132201 95.2897078 20.7042694 93.7977717 19.0953188 93.0664305 17.1060707 93.0664305 14.7950325 93.0664305 12.3669797 93.8270254 10.3777317 95.3774687 8.79803466 96.9279121 7.21833766 98.9171601 6.42848916 101.374467 6.42848916zM101.374467 9.85116599C99.2974576 9.85116599 97.7470142 11.1090729 97.2497022 13.1860819L97.2497022 13.1860819 105.352963 13.1860819C104.972665 11.1090729 103.480729 9.85116599 101.374467 9.85116599zM120.201755 1.16283251C122.600554 1.16283251 124.443534 1.83566642 125.701441 3.15208058 126.959348 4.46849474 127.602928 6.07744539 127.602928 8.00818616 127.602928 10.8165364 126.140246 13.3030965 123.214881 14.3562278L123.214881 14.3562278 127.539651 21.314517C127.634197 21.4666363 127.684303 21.6421716 127.684303 21.8212785 127.684303 22.3514718 127.254496 22.7812784 126.724303 22.7812784L126.724303 22.7812784 123.943425 22.7812784C123.601112 22.7812784 123.284697 22.5990029 123.112968 22.3028817L123.112968 22.3028817 118.826834 14.9120471 116.252513 14.9120471 116.252513 21.8212785C116.252513 22.3514718 115.822706 22.7812784 115.292513 22.7812784L115.292513 22.7812784 112.882973 22.7812784C112.352779 22.7812784 111.922973 22.3514718 111.922973 21.8212785L111.922973 21.8212785 111.922973 1.16283251zM120.172502 5.1705823L116.252513 5.1705823 116.252513 11.0213119 119.792204 11.0213119C122.044735 11.0213119 123.156374 9.73415139 123.156374 8.06669345 123.156374 6.42848916 122.044735 5.1705823 120.172502 5.1705823L120.172502 5.1705823zM134.210908 4.34777742C135.176278 3.37670023 135.176278 1.6699585 134.210908.728307893 133.245537-.242769298 131.548826-.242769298 130.583455.728307893 129.618085 1.6699585 129.618085 3.37670023 130.583455 4.34777742 131.548826 5.31885461 133.245537 5.31885461 134.210908 4.34777742zM134.444937 21.8212785L134.444937 6.83804023 134.444937 6.83804023 130.320172 6.83804023 130.320172 21.8212785C130.320172 22.3514718 130.749979 22.7812784 131.280172 22.7812784L133.484937 22.7812784C134.01513 22.7812784 134.444937 22.3514718 134.444937 21.8212785zM143.054106 23.1908295C144.955593 23.1908295 146.506036 22.7227711 147.646928 21.7574007 148.817074 20.7920304 149.402147 19.5633771 149.402147 18.0714411 149.402147 16.3162222 148.495284 14.9705544 146.710812 14.0344377 146.47922 13.9109223 146.01132 13.705921 145.311411 13.4237345L145.08268 13.3320623C144.491597 13.0964926 143.756193 12.8130979 142.878584 12.4839943 141.942467 12.1622042 141.474409 11.6941458 141.474409 11.0213119 141.474409 10.2899707 142.20575 9.6756441 143.288135 9.6756441 144.604549 9.6756441 145.833202 10.2022098 146.944841 11.2553411L148.992596 8.59325912C147.529914 7.07206942 145.65768 6.31147457 143.405149 6.31147457 141.620677 6.31147457 140.157995 6.75027929 139.07561 7.65714238 137.993225 8.56400547 137.437405 9.70489775 137.437405 11.1090729 137.437405 12.9813063 138.344268 14.3562278 140.187248 15.2338372 140.538292 15.4093591 141.211126 15.7018956 142.235004 16.082193 143.258881 16.4624904 143.873208 16.6965196 144.136491 16.8135342 144.897086 17.164578 145.277383 17.6326364 145.277383 18.1884557 145.277383 19.0953188 144.341266 19.738899 143.083359 19.738899 141.474409 19.738899 139.806951 18.8905432 138.666059 17.5156218L136.472035 20.1191965C138.080986 22.1669518 140.275009 23.1908295 143.054106 23.1908295zM155.434301 21.8212785L155.434301 16.9305488 155.434301 16.9305488 156.516686 15.9651784 161.494108 22.4081753C161.675895 22.6434874 161.956462 22.7812784 162.253814 22.7812784L164.84873 22.7812784C165.378923 22.7812784 165.808729 22.3514718 165.808729 21.8212785 165.808729 21.6036644 165.734794 21.3925069 165.599045 21.2224243L159.325036 13.3616038 159.325036 13.3616038 164.616833 8.50534543C165.007467 8.14686244 165.033531 7.53958317 164.675048 7.14894924 164.49323 6.9508246 164.23665 6.83804023 163.967742 6.83804023L161.226523 6.83804023 161.226523 6.83804023 155.434301 12.2792188 155.434301 1.98850573C155.434301 1.19321578 154.789591.548505901 153.994301.548505901L152.749536.548505901C151.954246.548505901 151.309537 1.19321578 151.309537 1.98850573L151.309537 21.8212785C151.309537 22.3514718 151.739343 22.7812784 152.269536 22.7812784L154.474301 22.7812784C155.004494 22.7812784 155.434301 22.3514718 155.434301 21.8212785zM10.1278618 1.16283251C11.1273774 1.16283251 12.0222516 1.78229373 12.3741759 2.71780472L12.3741759 2.71780472 19.4334434 21.4832675C19.4740928 21.5913248 19.4949176 21.7058283 19.4949176 21.8212785 19.4949176 22.3514718 19.065111 22.7812784 18.5349177 22.7812784L18.5349177 22.7812784 16.0433006 22.7812784C15.6333872 22.7812784 15.2686961 22.5210047 15.1354416 22.1333551L15.1354416 22.1333551 13.7492146 18.1006947 6.20177339 18.1006947 4.76154352 22.1434452C4.62529787 22.5258892 4.26320391 22.7812784 3.85721593 22.7812784L3.85721593 22.7812784 1.3938539 22.7812784C1.27687658 22.7812784 1.1608842 22.7598991 1.05159378 22.7181943.556240909 22.5291692.307913144 21.9743713.49693819 21.4790184L.49693819 21.4790184 7.77807378 2.39831204C8.06196751 1.65434939 8.77561626 1.16283251 9.5719052 1.16283251L9.5719052 1.16283251zM10.0047476 7.04281577L7.43042661 14.2392132 12.5205614 14.2392132 10.0047476 7.04281577z"/>
</svg>
