<svg xmlns="http://www.w3.org/2000/svg" width="10" height="12" viewBox="0 0 10 12">
  <defs>
    <linearGradient id="audit-a" x1="50%" x2="50%" y1="0%" y2="100%">
      <stop offset="0%" stop-color="#F1F9FF"/>
      <stop offset="100%" stop-color="#D6E2EA"/>
    </linearGradient>
  </defs>
  <path fill="url(#audit-a)" fill-rule="evenodd" d="M8.8888831,31.2000084 L6.56388916,31.2000084 C6.33610329,30.5039996 5.72498509,30 4.99998698,30 C4.27498887,30 3.66387067,30.5039996 3.43611084,31.2000084 L1.1111169,31.2000084 C0.497238288,31.2000084 0,31.7369986 0,32.4000169 L0,40.7999916 C0,41.4629817 0.497212247,42 1.1111169,42 L8.8888831,42 C9.50276171,42 10,41.4630098 10,40.7999916 L10,32.3999888 C10,31.7369986 9.50276171,31.2000084 8.8888831,31.2000084 Z M4.99998698,31.2000084 C5.30553306,31.2000084 5.55553241,31.4669989 5.55553241,31.7999986 C5.55553241,32.1329983 5.30553306,32.3999888 4.99998698,32.3999888 C4.6944409,32.3999888 4.44444155,32.1329983 4.44444155,31.7999986 C4.44444155,31.4669989 4.6944409,31.2000084 4.99998698,31.2000084 Z M6.11110388,39.5999831 L2.2222338,39.5999831 L2.2222338,38.3999747 L6.11110388,38.3999747 L6.11110388,39.5999831 Z M7.7777662,37.1999944 L2.2222338,37.1999944 L2.2222338,35.9999859 L7.7777662,35.9999859 L7.7777662,37.1999944 Z M7.7777662,34.8000056 L2.2222338,34.8000056 L2.2222338,33.5999972 L7.7777662,33.5999972 L7.7777662,34.8000056 Z" transform="translate(0 -30)"/>
</svg>
