<svg width="19" height="18" viewBox="0 0 19 18" fill="none" xmlns="http://www.w3.org/2000/svg">
<g filter="url(#filter0_d)">
<path fill-rule="evenodd" clip-rule="evenodd" d="M16.725 12.4303L17.0479 13.6355C17.0931 13.804 16.9818 13.9732 16.8135 14.0029L15.6347 14.3187C15.4771 14.361 15.3163 14.2669 15.2745 14.1107C15.2324 13.9538 15.3256 13.7926 15.4825 13.7505L15.9936 13.6136L13.9529 12.4495L13.0655 12.9611C12.9248 13.0422 12.745 12.9939 12.6638 12.8532C12.5827 12.7124 12.631 12.5326 12.7717 12.4515L13.3609 12.1118L9.51002 9.91515L5.73196 12.062L9.54867 14.3095L10.4791 13.7732C10.6198 13.692 10.7997 13.7404 10.8808 13.8811C10.9619 14.0218 10.9136 14.2016 10.7729 14.2827L9.69399 14.9047C9.60208 14.9577 9.48893 14.957 9.39785 14.9034L5.14196 12.3973L3.06488 13.5776L3.57526 13.7143C3.73217 13.7564 3.82529 13.9177 3.78323 14.0745C3.74152 14.2302 3.58117 14.3249 3.42299 14.2825L2.22649 13.9619C2.06023 13.9219 1.96882 13.752 2.0097 13.5994L2.33264 12.3938C2.37467 12.2369 2.5359 12.1437 2.69285 12.1858C2.84976 12.2278 2.94288 12.3891 2.90085 12.546L2.75923 13.0746L4.85202 11.8854V7.04015C4.85202 6.93521 4.90796 6.83818 4.99882 6.78559L9.23443 4.33406V2.00377L8.85417 2.38404C8.73929 2.49886 8.55305 2.49886 8.4382 2.38404C8.32335 2.26915 8.32335 2.08292 8.4382 1.96806L9.32055 1.08571C9.43326 0.972594 9.62152 0.970271 9.73652 1.08571L10.6189 1.96806C10.7337 2.08295 10.7337 2.26918 10.6189 2.38404C10.504 2.49889 10.3178 2.49889 10.2029 2.38404L9.82264 2.00377V4.33354L14.0869 6.78518C14.1781 6.83762 14.2344 6.93489 14.2344 7.04015V11.9329L16.2982 13.1102L16.1568 12.5825C16.1147 12.4256 16.2078 12.2644 16.3648 12.2223C16.5216 12.1801 16.6829 12.2734 16.725 12.4303ZM9.82261 9.41624L13.6461 11.5973V7.21033L9.82261 5.01206V9.41624ZM5.44026 7.20977L9.23438 5.01377V9.39512L5.44026 11.5511V7.20977ZM11.7638 13.6466C11.9263 13.6466 12.0579 13.5149 12.0579 13.3525C12.0579 13.1901 11.9263 13.0584 11.7638 13.0584C11.6014 13.0584 11.4697 13.1901 11.4697 13.3525C11.4697 13.5149 11.6014 13.6466 11.7638 13.6466Z" fill="url(#paint0_linear)"/>
<path fill-rule="evenodd" clip-rule="evenodd" d="M16.725 12.4303L17.0479 13.6355C17.0931 13.804 16.9818 13.9732 16.8135 14.0029L15.6347 14.3187C15.4771 14.361 15.3163 14.2669 15.2745 14.1107C15.2324 13.9538 15.3256 13.7926 15.4825 13.7505L15.9936 13.6136L13.9529 12.4495L13.0655 12.9611C12.9248 13.0422 12.745 12.9939 12.6638 12.8532C12.5827 12.7124 12.631 12.5326 12.7717 12.4515L13.3609 12.1118L9.51002 9.91515L5.73196 12.062L9.54867 14.3095L10.4791 13.7732C10.6198 13.692 10.7997 13.7404 10.8808 13.8811C10.9619 14.0218 10.9136 14.2016 10.7729 14.2827L9.69399 14.9047C9.60208 14.9577 9.48893 14.957 9.39785 14.9034L5.14196 12.3973L3.06488 13.5776L3.57526 13.7143C3.73217 13.7564 3.82529 13.9177 3.78323 14.0745C3.74152 14.2302 3.58117 14.3249 3.42299 14.2825L2.22649 13.9619C2.06023 13.9219 1.96882 13.752 2.0097 13.5994L2.33264 12.3938C2.37467 12.2369 2.5359 12.1437 2.69285 12.1858C2.84976 12.2278 2.94288 12.3891 2.90085 12.546L2.75923 13.0746L4.85202 11.8854V7.04015C4.85202 6.93521 4.90796 6.83818 4.99882 6.78559L9.23443 4.33406V2.00377L8.85417 2.38404C8.73929 2.49886 8.55305 2.49886 8.4382 2.38404C8.32335 2.26915 8.32335 2.08292 8.4382 1.96806L9.32055 1.08571C9.43326 0.972594 9.62152 0.970271 9.73652 1.08571L10.6189 1.96806C10.7337 2.08295 10.7337 2.26918 10.6189 2.38404C10.504 2.49889 10.3178 2.49889 10.2029 2.38404L9.82264 2.00377V4.33354L14.0869 6.78518C14.1781 6.83762 14.2344 6.93489 14.2344 7.04015V11.9329L16.2982 13.1102L16.1568 12.5825C16.1147 12.4256 16.2078 12.2644 16.3648 12.2223C16.5216 12.1801 16.6829 12.2734 16.725 12.4303ZM9.82261 9.41624L13.6461 11.5973V7.21033L9.82261 5.01206V9.41624ZM5.44026 7.20977L9.23438 5.01377V9.39512L5.44026 11.5511V7.20977ZM11.7638 13.6466C11.9263 13.6466 12.0579 13.5149 12.0579 13.3525C12.0579 13.1901 11.9263 13.0584 11.7638 13.0584C11.6014 13.0584 11.4697 13.1901 11.4697 13.3525C11.4697 13.5149 11.6014 13.6466 11.7638 13.6466Z" fill="url(#paint1_linear)"/>
<path d="M17.0479 13.6355L16.8064 13.7002L16.8064 13.7002L17.0479 13.6355ZM16.725 12.4303L16.4835 12.495L16.4835 12.495L16.725 12.4303ZM16.8135 14.0029L16.77 13.7567L16.7593 13.7586L16.7488 13.7614L16.8135 14.0029ZM15.6347 14.3187L15.57 14.0772L15.5699 14.0773L15.6347 14.3187ZM15.2745 14.1107L15.516 14.046L15.516 14.046L15.2745 14.1107ZM15.4825 13.7505L15.5471 13.992L15.5472 13.992L15.4825 13.7505ZM15.9936 13.6136L16.0583 13.8551L16.6456 13.6977L16.1174 13.3964L15.9936 13.6136ZM13.9529 12.4495L14.0767 12.2324L13.9522 12.1613L13.828 12.2329L13.9529 12.4495ZM13.0655 12.9611L12.9407 12.7445L12.9406 12.7445L13.0655 12.9611ZM12.6638 12.8532L12.8804 12.7283L12.8804 12.7283L12.6638 12.8532ZM12.7717 12.4515L12.8966 12.6681L12.8966 12.6681L12.7717 12.4515ZM13.3609 12.1118L13.4857 12.3284L13.8634 12.1107L13.4847 11.8947L13.3609 12.1118ZM9.51002 9.91515L9.63389 9.698L9.51026 9.62747L9.38651 9.69779L9.51002 9.91515ZM5.73196 12.062L5.60845 11.8447L5.23273 12.0582L5.60511 12.2775L5.73196 12.062ZM9.54867 14.3095L9.42181 14.525L9.54733 14.5989L9.67353 14.5261L9.54867 14.3095ZM10.4791 13.7732L10.3542 13.5566L10.3542 13.5566L10.4791 13.7732ZM10.7729 14.2827L10.648 14.0661L10.648 14.0662L10.7729 14.2827ZM9.69399 14.9047L9.56913 14.6881L9.56911 14.6881L9.69399 14.9047ZM9.39785 14.9034L9.52472 14.6879L9.5247 14.6879L9.39785 14.9034ZM5.14196 12.3973L5.26882 12.1818L5.14419 12.1085L5.01845 12.1799L5.14196 12.3973ZM3.06488 13.5776L2.94136 13.3602L2.4115 13.6613L3.00017 13.819L3.06488 13.5776ZM3.57526 13.7143L3.63998 13.4729L3.63997 13.4728L3.57526 13.7143ZM3.78323 14.0745L3.54176 14.0098L3.54175 14.0098L3.78323 14.0745ZM3.42299 14.2825L3.35828 14.524L3.35829 14.524L3.42299 14.2825ZM2.22649 13.9619L2.29122 13.7203L2.28497 13.7188L2.22649 13.9619ZM2.0097 13.5994L1.76821 13.5347L1.76821 13.5347L2.0097 13.5994ZM2.33264 12.3938L2.57413 12.4585L2.57413 12.4585L2.33264 12.3938ZM2.69285 12.1858L2.62805 12.4273L2.62816 12.4273L2.69285 12.1858ZM2.90085 12.546L3.14233 12.6107L3.14233 12.6107L2.90085 12.546ZM2.75923 13.0746L2.51774 13.0099L2.36307 13.5873L2.88274 13.292L2.75923 13.0746ZM4.85202 11.8854L4.97554 12.1027L5.10202 12.0309V11.8854H4.85202ZM4.99882 6.78559L4.87358 6.56922L4.87358 6.56923L4.99882 6.78559ZM9.23443 4.33406L9.35967 4.55044L9.48443 4.47822V4.33406H9.23443ZM9.23443 2.00377H9.48443V1.40022L9.05766 1.82699L9.23443 2.00377ZM8.85417 2.38404L9.0309 2.56086L9.03095 2.56081L8.85417 2.38404ZM8.4382 2.38404L8.2614 2.56079L8.26144 2.56083L8.4382 2.38404ZM8.4382 1.96806L8.26142 1.79129V1.79129L8.4382 1.96806ZM9.32055 1.08571L9.49733 1.26249L9.49765 1.26217L9.32055 1.08571ZM9.73652 1.08571L9.55941 1.26215L9.55975 1.26249L9.73652 1.08571ZM10.6189 1.96806L10.7957 1.79131L10.7957 1.79129L10.6189 1.96806ZM10.6189 2.38404L10.7956 2.56083L10.7957 2.56081L10.6189 2.38404ZM10.2029 2.38404L10.0261 2.56081L10.0262 2.56083L10.2029 2.38404ZM9.82264 2.00377L9.99942 1.82699L9.57264 1.40022V2.00377H9.82264ZM9.82264 4.33354H9.57264V4.47818L9.69803 4.55027L9.82264 4.33354ZM14.0869 6.78518L13.9623 7.00192L13.9623 7.00195L14.0869 6.78518ZM14.2344 11.9329H13.9844V12.0781L14.1105 12.1501L14.2344 11.9329ZM16.2982 13.1102L16.1743 13.3273L16.6947 13.6242L16.5397 13.0454L16.2982 13.1102ZM16.1568 12.5825L16.3983 12.5178L16.3983 12.5178L16.1568 12.5825ZM16.3648 12.2223L16.4295 12.4638L16.4297 12.4637L16.3648 12.2223ZM13.6461 11.5973L13.5223 11.8145L13.8961 12.0278V11.5973H13.6461ZM9.82261 9.41624H9.57261V9.56145L9.69874 9.63339L9.82261 9.41624ZM13.6461 7.21033H13.8961V7.06569L13.7707 6.9936L13.6461 7.21033ZM9.82261 5.01206L9.94722 4.79533L9.57261 4.57996V5.01206H9.82261ZM9.23438 5.01377H9.48438V4.58022L9.10914 4.7974L9.23438 5.01377ZM5.44026 7.20977L5.31502 6.9934L5.19026 7.06561V7.20977H5.44026ZM9.23438 9.39512L9.35789 9.61248L9.48438 9.54061V9.39512H9.23438ZM5.44026 11.5511H5.19026V11.9807L5.56377 11.7685L5.44026 11.5511ZM17.2894 13.5708L16.9664 12.3656L16.4835 12.495L16.8064 13.7002L17.2894 13.5708ZM16.8569 14.2491C17.1671 14.1943 17.3732 13.8834 17.2894 13.5708L16.8064 13.7002C16.8129 13.7246 16.7965 13.752 16.77 13.7567L16.8569 14.2491ZM15.6994 14.5602L16.8782 14.2444L16.7488 13.7614L15.57 14.0772L15.6994 14.5602ZM15.033 14.1754C15.1103 14.464 15.4075 14.6385 15.6995 14.5602L15.5699 14.0773C15.5466 14.0835 15.5223 14.0697 15.516 14.046L15.033 14.1754ZM15.4178 13.509C15.1275 13.5868 14.9552 13.8852 15.033 14.1755L15.516 14.046C15.5097 14.0225 15.5236 13.9983 15.5471 13.992L15.4178 13.509ZM15.9288 13.3721L15.4178 13.5091L15.5472 13.992L16.0583 13.8551L15.9288 13.3721ZM13.829 12.6667L15.8697 13.8307L16.1174 13.3964L14.0767 12.2324L13.829 12.6667ZM13.1904 13.1777L14.0777 12.6661L13.828 12.2329L12.9407 12.7445L13.1904 13.1777ZM12.4472 12.978C12.5973 13.2383 12.9301 13.3279 13.1905 13.1776L12.9406 12.7445C12.9196 12.7566 12.8926 12.7495 12.8804 12.7283L12.4472 12.978ZM12.6469 12.2349C12.3865 12.385 12.2972 12.7177 12.4472 12.978L12.8804 12.7283C12.8682 12.7072 12.8755 12.6802 12.8966 12.6681L12.6469 12.2349ZM13.236 11.8952L12.6469 12.2349L12.8966 12.6681L13.4857 12.3284L13.236 11.8952ZM9.38615 10.1323L13.237 12.329L13.4847 11.8947L9.63389 9.698L9.38615 10.1323ZM5.85548 12.2794L9.63354 10.1325L9.38651 9.69779L5.60845 11.8447L5.85548 12.2794ZM9.67552 14.0941L5.85882 11.8466L5.60511 12.2775L9.42181 14.525L9.67552 14.0941ZM10.3542 13.5566L9.42381 14.0929L9.67353 14.5261L10.6039 13.9897L10.3542 13.5566ZM11.0974 13.7562C10.9473 13.4959 10.6146 13.4065 10.3542 13.5566L10.6039 13.9897C10.6251 13.9776 10.652 13.9848 10.6642 14.0059L11.0974 13.7562ZM10.8977 14.4993C11.1581 14.3493 11.2474 14.0165 11.0974 13.7562L10.6642 14.0059C10.6764 14.027 10.6691 14.054 10.648 14.0661L10.8977 14.4993ZM9.81885 15.1213L10.8977 14.4993L10.648 14.0662L9.56913 14.6881L9.81885 15.1213ZM9.27098 15.1188C9.4395 15.218 9.64882 15.2193 9.81888 15.1213L9.56911 14.6881C9.55535 14.6961 9.53836 14.696 9.52472 14.6879L9.27098 15.1188ZM5.01511 12.6127L9.27099 15.1188L9.5247 14.6879L5.26882 12.1818L5.01511 12.6127ZM3.18839 13.7949L5.26548 12.6146L5.01845 12.1799L2.94136 13.3602L3.18839 13.7949ZM3.63997 13.4728L3.12958 13.3361L3.00017 13.819L3.51055 13.9558L3.63997 13.4728ZM4.0247 14.1393C4.10253 13.849 3.9302 13.5506 3.63998 13.4729L3.51053 13.9558C3.53414 13.9621 3.54804 13.9863 3.54176 14.0098L4.0247 14.1393ZM3.35829 14.524C3.65124 14.6025 3.94764 14.4268 4.02471 14.1393L3.54175 14.0098C3.53541 14.0335 3.5111 14.0473 3.4877 14.041L3.35829 14.524ZM2.16178 14.2034L3.35828 14.524L3.4877 14.041L2.2912 13.7204L2.16178 14.2034ZM1.76821 13.5347C1.69242 13.8177 1.85965 14.1308 2.16802 14.205L2.28497 13.7188C2.27241 13.7158 2.26316 13.7086 2.25678 13.6976C2.24968 13.6854 2.24885 13.6728 2.25119 13.664L1.76821 13.5347ZM2.09115 12.3291L1.76821 13.5347L2.25118 13.664L2.57413 12.4585L2.09115 12.3291ZM2.75764 11.9443C2.46718 11.8664 2.16888 12.0389 2.09115 12.3291L2.57413 12.4585C2.58046 12.4348 2.60463 12.421 2.62805 12.4273L2.75764 11.9443ZM3.14233 12.6107C3.22008 12.3204 3.04782 12.0221 2.75753 11.9443L2.62816 12.4273C2.65169 12.4336 2.66567 12.4578 2.65936 12.4813L3.14233 12.6107ZM3.00071 13.1393L3.14233 12.6107L2.65936 12.4813L2.51774 13.0099L3.00071 13.1393ZM4.72851 11.668L2.63571 12.8573L2.88274 13.292L4.97554 12.1027L4.72851 11.668ZM4.60202 7.04015V11.8854H5.10202V7.04015H4.60202ZM4.87358 6.56923C4.70551 6.66651 4.60202 6.84599 4.60202 7.04015H5.10202C5.10202 7.02443 5.11041 7.00986 5.12406 7.00196L4.87358 6.56923ZM9.1092 4.11769L4.87358 6.56922L5.12405 7.00197L9.35967 4.55044L9.1092 4.11769ZM8.98443 2.00377V4.33406H9.48443V2.00377H8.98443ZM9.03095 2.56081L9.41121 2.18055L9.05766 1.82699L8.67739 2.20726L9.03095 2.56081ZM8.26144 2.56083C8.47394 2.77327 8.81841 2.77324 9.0309 2.56086L8.67744 2.20721C8.66016 2.22448 8.63217 2.22445 8.61495 2.20724L8.26144 2.56083ZM8.26142 1.79129C8.04893 2.00378 8.04896 2.34829 8.2614 2.56079L8.615 2.20728C8.59773 2.19001 8.59777 2.16205 8.61498 2.14484L8.26142 1.79129ZM9.14377 0.908935L8.26142 1.79129L8.61498 2.14484L9.49733 1.26249L9.14377 0.908935ZM9.91364 0.909274C9.69964 0.694457 9.35257 0.699377 9.14345 0.909258L9.49765 1.26217C9.50479 1.255 9.51556 1.25005 9.52864 1.25C9.54134 1.24995 9.55178 1.2545 9.55941 1.26215L9.91364 0.909274ZM10.7957 1.79129L9.9133 0.908935L9.55975 1.26249L10.4421 2.14484L10.7957 1.79129ZM10.7957 2.56081C11.0081 2.34832 11.0081 2.00381 10.7957 1.79131L10.4421 2.14482C10.4593 2.16209 10.4593 2.19005 10.4421 2.20726L10.7957 2.56081ZM10.0262 2.56083C10.2387 2.77329 10.5831 2.77329 10.7956 2.56083L10.4421 2.20724C10.4249 2.22449 10.3969 2.22449 10.3797 2.20724L10.0262 2.56083ZM9.64586 2.18055L10.0261 2.56081L10.3797 2.20726L9.99942 1.82699L9.64586 2.18055ZM10.0726 4.33354V2.00377H9.57264V4.33354H10.0726ZM14.2115 6.56845L9.94725 4.1168L9.69803 4.55027L13.9623 7.00192L14.2115 6.56845ZM14.4844 7.04015C14.4844 6.84543 14.3803 6.66547 14.2114 6.56842L13.9623 7.00195C13.9759 7.00978 13.9844 7.02435 13.9844 7.04015H14.4844ZM14.4844 11.9329V7.04015H13.9844V11.9329H14.4844ZM16.422 12.893L14.3583 11.7158L14.1105 12.1501L16.1743 13.3273L16.422 12.893ZM15.9153 12.6472L16.0567 13.1749L16.5397 13.0454L16.3983 12.5178L15.9153 12.6472ZM16.3 11.9808C16.0098 12.0586 15.8375 12.3569 15.9153 12.6472L16.3983 12.5178C16.392 12.4943 16.4059 12.4701 16.4295 12.4638L16.3 11.9808ZM16.9665 12.3656C16.8887 12.0755 16.5904 11.9028 16.2998 11.9809L16.4297 12.4637C16.4529 12.4575 16.4771 12.4713 16.4835 12.495L16.9665 12.3656ZM13.77 11.3802L9.94648 9.19909L9.69874 9.63339L13.5223 11.8145L13.77 11.3802ZM13.3961 7.21033V11.5973H13.8961V7.21033H13.3961ZM9.698 5.2288L13.5215 7.42706L13.7707 6.9936L9.94722 4.79533L9.698 5.2288ZM10.0726 9.41624V5.01206H9.57261V9.41624H10.0726ZM9.10914 4.7974L5.31502 6.9934L5.56549 7.42614L9.35961 5.23014L9.10914 4.7974ZM9.48438 9.39512V5.01377H8.98438V9.39512H9.48438ZM5.56377 11.7685L9.35789 9.61248L9.11086 9.17777L5.31674 11.3338L5.56377 11.7685ZM5.19026 7.20977V11.5511H5.69026V7.20977H5.19026ZM11.8079 13.3525C11.8079 13.3769 11.7882 13.3966 11.7638 13.3966V13.8966C12.0643 13.8966 12.3079 13.653 12.3079 13.3525H11.8079ZM11.7638 13.3084C11.7882 13.3084 11.8079 13.3281 11.8079 13.3525H12.3079C12.3079 13.052 12.0643 12.8084 11.7638 12.8084V13.3084ZM11.7197 13.3525C11.7197 13.3281 11.7395 13.3084 11.7638 13.3084V12.8084C11.4633 12.8084 11.2197 13.052 11.2197 13.3525H11.7197ZM11.7638 13.3966C11.7395 13.3966 11.7197 13.3769 11.7197 13.3525H11.2197C11.2197 13.653 11.4633 13.8966 11.7638 13.8966V13.3966Z" fill="url(#paint2_linear)"/>
</g>
<defs>
<filter id="filter0_d" x="0.750122" y="0.75" width="17.5581" height="16.444" filterUnits="userSpaceOnUse" color-interpolation-filters="sRGB">
<feFlood flood-opacity="0" result="BackgroundImageFix"/>
<feColorMatrix in="SourceAlpha" type="matrix" values="0 0 0 0 0 0 0 0 0 0 0 0 0 0 0 0 0 0 127 0"/>
<feOffset dy="1"/>
<feGaussianBlur stdDeviation="0.5"/>
<feColorMatrix type="matrix" values="0 0 0 0 0 0 0 0 0 0 0 0 0 0 0 0 0 0 0.21 0"/>
<feBlend mode="normal" in2="BackgroundImageFix" result="effect1_dropShadow"/>
<feBlend mode="normal" in="SourceGraphic" in2="effect1_dropShadow" result="shape"/>
</filter>
<linearGradient id="paint0_linear" x1="2" y1="1" x2="2" y2="14.944" gradientUnits="userSpaceOnUse">
<stop stop-color="#F1F9FF"/>
<stop offset="1" stop-color="#D6E2EA"/>
</linearGradient>
<linearGradient id="paint1_linear" x1="9.07979" y1="1" x2="9.07979" y2="1.83196" gradientUnits="userSpaceOnUse">
<stop stop-color="#C1D1DE" stop-opacity="0.4"/>
<stop offset="1" stop-color="#C1D1DE" stop-opacity="0.01"/>
</linearGradient>
<linearGradient id="paint2_linear" x1="2" y1="1" x2="2" y2="14.944" gradientUnits="userSpaceOnUse">
<stop stop-color="#F1F9FF"/>
<stop offset="1" stop-color="#D6E2EA"/>
</linearGradient>
</defs>
</svg>
