<svg width="16" height="16" viewBox="0 0 16 16" fill="none" xmlns="http://www.w3.org/2000/svg">
<g filter="url(#filter0_d)">
<path fill-rule="evenodd" clip-rule="evenodd" d="M13.8333 7C13.8333 6.678 14.0947 6.41667 14.4167 6.41667C14.7387 6.41667 15 6.678 15 7C15 10.8599 11.8599 14 8 14C4.14008 14 1 10.8599 1 7C1 3.14008 4.14008 0 8 0C9.87892 0 11.6432 0.734417 12.9674 2.06792C13.1943 2.29658 13.1931 2.66583 12.9645 2.89275C12.7358 3.11996 12.3663 3.1185 12.1396 2.88983C11.036 1.77858 9.56596 1.16667 8 1.16667C4.7835 1.16667 2.16667 3.7835 2.16667 7C2.16667 10.2165 4.7835 12.8333 8 12.8333C11.2165 12.8333 13.8333 10.2165 13.8333 7ZM8.58333 6.41667H10.3333C10.6553 6.41667 10.9167 6.678 10.9167 7C10.9167 7.322 10.6553 7.58333 10.3333 7.58333H8.58333V9.33333C8.58333 9.65533 8.322 9.91667 8 9.91667C7.678 9.91667 7.41667 9.65533 7.41667 9.33333V7.58333H5.66667C5.34467 7.58333 5.08333 7.322 5.08333 7C5.08333 6.678 5.34467 6.41667 5.66667 6.41667H7.41667V4.66667C7.41667 4.34467 7.678 4.08333 8 4.08333C8.322 4.08333 8.58333 4.34467 8.58333 4.66667V6.41667Z" fill="url(#paint0_linear)"/>
<path fill-rule="evenodd" clip-rule="evenodd" d="M13.8333 7C13.8333 6.678 14.0947 6.41667 14.4167 6.41667C14.7387 6.41667 15 6.678 15 7C15 10.8599 11.8599 14 8 14C4.14008 14 1 10.8599 1 7C1 3.14008 4.14008 0 8 0C9.87892 0 11.6432 0.734417 12.9674 2.06792C13.1943 2.29658 13.1931 2.66583 12.9645 2.89275C12.7358 3.11996 12.3663 3.1185 12.1396 2.88983C11.036 1.77858 9.56596 1.16667 8 1.16667C4.7835 1.16667 2.16667 3.7835 2.16667 7C2.16667 10.2165 4.7835 12.8333 8 12.8333C11.2165 12.8333 13.8333 10.2165 13.8333 7ZM8.58333 6.41667H10.3333C10.6553 6.41667 10.9167 6.678 10.9167 7C10.9167 7.322 10.6553 7.58333 10.3333 7.58333H8.58333V9.33333C8.58333 9.65533 8.322 9.91667 8 9.91667C7.678 9.91667 7.41667 9.65533 7.41667 9.33333V7.58333H5.66667C5.34467 7.58333 5.08333 7.322 5.08333 7C5.08333 6.678 5.34467 6.41667 5.66667 6.41667H7.41667V4.66667C7.41667 4.34467 7.678 4.08333 8 4.08333C8.322 4.08333 8.58333 4.34467 8.58333 4.66667V6.41667Z" fill="url(#paint1_linear)"/>
</g>
<defs>
<filter id="filter0_d" x="0" y="0" width="16" height="16" filterUnits="userSpaceOnUse" color-interpolation-filters="sRGB">
<feFlood flood-opacity="0" result="BackgroundImageFix"/>
<feColorMatrix in="SourceAlpha" type="matrix" values="0 0 0 0 0 0 0 0 0 0 0 0 0 0 0 0 0 0 127 0"/>
<feOffset dy="1"/>
<feGaussianBlur stdDeviation="0.5"/>
<feColorMatrix type="matrix" values="0 0 0 0 0 0 0 0 0 0 0 0 0 0 0 0 0 0 0.21 0"/>
<feBlend mode="normal" in2="BackgroundImageFix" result="effect1_dropShadow"/>
<feBlend mode="normal" in="SourceGraphic" in2="effect1_dropShadow" result="shape"/>
</filter>
<linearGradient id="paint0_linear" x1="1" y1="0" x2="1" y2="14" gradientUnits="userSpaceOnUse">
<stop stop-color="#F1F9FF"/>
<stop offset="1" stop-color="#D6E2EA"/>
</linearGradient>
<linearGradient id="paint1_linear" x1="7.58235" y1="0" x2="7.58235" y2="0.835299" gradientUnits="userSpaceOnUse">
<stop stop-color="#C1D1DE" stop-opacity="0.4"/>
<stop offset="1" stop-color="#C1D1DE" stop-opacity="0.01"/>
</linearGradient>
</defs>
</svg>
