<svg xmlns="http://www.w3.org/2000/svg" width="14" height="13" viewBox="0 0 14 13">
  <path fill="#DFDFDF" fill-rule="evenodd" d="M30.9583333,10.25 C32.0841667,10.25 33,11.1658333 33,12.2916667 C33,13.4175 32.0841667,14.3333333 30.9583333,14.3333333 L30.9583333,14.3333333 L26.583,14.333 L26.583,15.499 L26.7291667,15.5 C26.9706667,15.5 27.1666667,15.696 27.1666667,15.9375 L27.166,16.083 L30.6666667,16.0833333 C30.9886667,16.0833333 31.25,16.3446667 31.25,16.6666667 C31.25,16.9886667 30.9886667,17.25 30.6666667,17.25 L27.166,17.249 L27.1666667,17.3958333 C27.1666667,17.6373333 26.9706667,17.8333333 26.7291667,17.8333333 L25.2708333,17.8333333 C25.0293333,17.8333333 24.8333333,17.6373333 24.8333333,17.3958333 L24.833,17.249 L21.3333333,17.25 C21.0113333,17.25 20.75,16.9886667 20.75,16.6666667 C20.75,16.3446667 21.0113333,16.0833333 21.3333333,16.0833333 L24.833,16.083 L24.8333333,15.9375 C24.8333333,15.696 25.0293333,15.5 25.2708333,15.5 L25.416,15.499 L25.416,14.333 L21.0416667,14.3333333 C19.9670076,14.3333333 19.0836915,13.4988654 19.0056104,12.4438215 L19,12.2916667 C19,11.1658333 19.9158333,10.25 21.0416667,10.25 L21.0416667,10.25 Z M21.0416667,11.4166667 C20.5586667,11.4166667 20.1666667,11.8086667 20.1666667,12.2916667 C20.1666667,12.7746667 20.5586667,13.1666667 21.0416667,13.1666667 C21.5246667,13.1666667 21.9166667,12.7746667 21.9166667,12.2916667 C21.9166667,11.8086667 21.5246667,11.4166667 21.0416667,11.4166667 Z M23.9583333,11.4166667 C23.4753333,11.4166667 23.0833333,11.8086667 23.0833333,12.2916667 C23.0833333,12.7746667 23.4753333,13.1666667 23.9583333,13.1666667 C24.4413333,13.1666667 24.8333333,12.7746667 24.8333333,12.2916667 C24.8333333,11.8086667 24.4413333,11.4166667 23.9583333,11.4166667 Z M30.9583333,5 C32.0841667,5 33,5.91583333 33,7.04166667 C33,8.1675 32.0841667,9.08333333 30.9583333,9.08333333 L30.9583333,9.08333333 L21.0416667,9.08333333 C19.9158333,9.08333333 19,8.1675 19,7.04166667 C19,5.91583333 19.9158333,5 21.0416667,5 L21.0416667,5 Z M21.0416667,6.16666667 C20.5586667,6.16666667 20.1666667,6.55866667 20.1666667,7.04166667 C20.1666667,7.52466667 20.5586667,7.91666667 21.0416667,7.91666667 C21.5246667,7.91666667 21.9166667,7.52466667 21.9166667,7.04166667 C21.9166667,6.55866667 21.5246667,6.16666667 21.0416667,6.16666667 Z M23.9583333,6.16666667 C23.4753333,6.16666667 23.0833333,6.55866667 23.0833333,7.04166667 C23.0833333,7.52466667 23.4753333,7.91666667 23.9583333,7.91666667 C24.4413333,7.91666667 24.8333333,7.52466667 24.8333333,7.04166667 C24.8333333,6.55866667 24.4413333,6.16666667 23.9583333,6.16666667 Z" transform="translate(-19 -5)"/>
</svg>
