<svg width="15" height="15" viewBox="0 0 15 15" fill="none" xmlns="http://www.w3.org/2000/svg">
<g filter="url(#filter0_d)">
<path fill-rule="evenodd" clip-rule="evenodd" d="M4.835 5.265L3.925 6.175L6.85 9.1L13.35 2.6L12.44 1.69L6.85 7.28L4.835 5.265ZM12.7 6.5C12.7 9.36 10.36 11.7 7.5 11.7C4.64 11.7 2.3 9.36 2.3 6.5C2.3 3.64 4.64 1.3 7.5 1.3C8.02 1.3 8.475 1.365 8.93 1.495L9.97003 0.455C9.19 0.195 8.345 0 7.5 0C3.925 0 1 2.925 1 6.5C1 10.075 3.925 13 7.5 13C11.075 13 14 10.075 14 6.5H12.7Z" fill="url(#paint0_linear)"/>
<path fill-rule="evenodd" clip-rule="evenodd" d="M4.835 5.265L3.925 6.175L6.85 9.1L13.35 2.6L12.44 1.69L6.85 7.28L4.835 5.265ZM12.7 6.5C12.7 9.36 10.36 11.7 7.5 11.7C4.64 11.7 2.3 9.36 2.3 6.5C2.3 3.64 4.64 1.3 7.5 1.3C8.02 1.3 8.475 1.365 8.93 1.495L9.97003 0.455C9.19 0.195 8.345 0 7.5 0C3.925 0 1 2.925 1 6.5C1 10.075 3.925 13 7.5 13C11.075 13 14 10.075 14 6.5H12.7Z" fill="url(#paint1_linear)"/>
</g>
<defs>
<filter id="filter0_d" x="0" y="0" width="15" height="15" filterUnits="userSpaceOnUse" color-interpolation-filters="sRGB">
<feFlood flood-opacity="0" result="BackgroundImageFix"/>
<feColorMatrix in="SourceAlpha" type="matrix" values="0 0 0 0 0 0 0 0 0 0 0 0 0 0 0 0 0 0 127 0"/>
<feOffset dy="1"/>
<feGaussianBlur stdDeviation="0.5"/>
<feColorMatrix type="matrix" values="0 0 0 0 0 0 0 0 0 0 0 0 0 0 0 0 0 0 0.21 0"/>
<feBlend mode="normal" in2="BackgroundImageFix" result="effect1_dropShadow"/>
<feBlend mode="normal" in="SourceGraphic" in2="effect1_dropShadow" result="shape"/>
</filter>
<linearGradient id="paint0_linear" x1="1" y1="0" x2="1" y2="13" gradientUnits="userSpaceOnUse">
<stop stop-color="#F1F9FF"/>
<stop offset="1" stop-color="#D6E2EA"/>
</linearGradient>
<linearGradient id="paint1_linear" x1="7.11218" y1="0" x2="7.11218" y2="0.775635" gradientUnits="userSpaceOnUse">
<stop stop-color="#C1D1DE" stop-opacity="0.4"/>
<stop offset="1" stop-color="#C1D1DE" stop-opacity="0.01"/>
</linearGradient>
</defs>
</svg>
