<svg xmlns="http://www.w3.org/2000/svg" width="6" height="18" viewBox="0 0 6 18"><path fill="#54616A" fill-rule="evenodd" d="M15,768 C15.5522847,768 16,768.447715 16,769 C16,769.552285 15.5522847,770 15,770 C14.4477153,770 14,769.552285 14,769 C14,768.447715 14.4477153,768 15,768 Z M11,768 C11.5522847,768 12,768.447715 12,769 C12,769.552285 11.5522847,770 11,770 C10.4477153,770 10,769.552285 10,769 C10,768.447715 10.4477153,768 11,768 Z M15,764 C15.5522847,764 16,764.447715 16,765 C16,765.552285 15.5522847,766 15,766 C14.4477153,766 14,765.552285 14,765 C14,764.447715 14.4477153,764 15,764 Z M11,764 C11.5522847,764 12,764.447715 12,765 C12,765.552285 11.5522847,766 11,766 C10.4477153,766 10,765.552285 10,765 C10,764.447715 10.4477153,764 11,764 Z M15,760 C15.5522847,760 16,760.447715 16,761 C16,761.552285 15.5522847,762 15,762 C14.4477153,762 14,761.552285 14,761 C14,760.447715 14.4477153,760 15,760 Z M11,760 C11.5522847,760 12,760.447715 12,761 C12,761.552285 11.5522847,762 11,762 C10.4477153,762 10,761.552285 10,761 C10,760.447715 10.4477153,760 11,760 Z M15,756 C15.5522847,756 16,756.447715 16,757 C16,757.552285 15.5522847,758 15,758 C14.4477153,758 14,757.552285 14,757 C14,756.447715 14.4477153,756 15,756 Z M11,756 C11.5522847,756 12,756.447715 12,757 C12,757.552285 11.5522847,758 11,758 C10.4477153,758 10,757.552285 10,757 C10,756.447715 10.4477153,756 11,756 Z M15,752 C15.5522847,752 16,752.447715 16,753 C16,753.552285 15.5522847,754 15,754 C14.4477153,754 14,753.552285 14,753 C14,752.447715 14.4477153,752 15,752 Z M11,752 C11.5522847,752 12,752.447715 12,753 C12,753.552285 11.5522847,754 11,754 C10.4477153,754 10,753.552285 10,753 C10,752.447715 10.4477153,752 11,752 Z" transform="translate(-10 -752)"/></svg>