<svg xmlns="http://www.w3.org/2000/svg" width="10" height="10" viewBox="0 0 10 10"><path fill="%23F0F0F0" d="M8.33333 0C9.20781 0 9.92495 0.577233 9.99448 1.31141L10 1.42857V8.57143C10 9.32098 9.32658 9.93567 8.47003 9.99526L8.33333 10H1.66667C0.792215 10 0.0750549 9.42279 0.00552495 8.6886L0 8.57143L0 5.71429H5.48817L4.41075 6.63779C4.08531 6.91671 4.08531 7.369 4.41075 7.64793C4.70905 7.90361 5.17729 7.92492 5.50392 7.71185L5.58925 7.64793L8.08925 5.50507C8.38755 5.24939 8.41241 4.84805 8.16382 4.56807L8.08925 4.49492L5.58925 2.35206C5.26383 2.07312 4.73617 2.07312 4.41075 2.35206C4.11243 2.60777 4.08757 3.0091 4.33617 3.28907L4.41075 3.36222L5.48817 4.28571H0V1.42857C0 0.679042 0.673438 0.0643327 1.52997 0.00473567L1.66667 0L8.33333 0Z"></path></svg>