<svg xmlns="http://www.w3.org/2000/svg" width="18" height="18" viewBox="0 0 18 18"><path fill="currentColor" fill-rule="evenodd" d="M318.296875,19.4296875 C318.685211,19.4296875 319,19.7444766 319,20.1328125 L319,20.1328125 L319,23.296875 C319,23.6852109 318.685211,24 318.296875,24 L318.296875,24 L314.675781,24 C314.287445,24 313.972656,23.6852109 313.972656,23.296875 L313.972656,23.296875 L313.972656,20.1328125 C313.972656,19.7444766 314.287445,19.4296875 314.675781,19.4296875 L314.675781,19.4296875 Z M305.324219,19.4296875 C305.712555,19.4296875 306.027344,19.7444766 306.027344,20.1328125 L306.027344,20.1328125 L306.027344,23.296875 C306.027344,23.6852109 305.712555,24 305.324219,24 L305.324219,24 L301.703125,24 C301.314789,24 301,23.6852109 301,23.296875 L301,23.296875 L301,20.1328125 C301,19.7444766 301.314789,19.4296875 301.703125,19.4296875 L301.703125,19.4296875 Z M311.828125,19.4296875 C312.216461,19.4296875 312.53125,19.7444766 312.53125,20.1328125 L312.53125,20.1328125 L312.53125,23.296875 C312.53125,23.6852109 312.216461,24 311.828125,24 L311.828125,24 L308.171875,24 C307.783539,24 307.46875,23.6852109 307.46875,23.296875 L307.46875,23.296875 L307.46875,20.1328125 C307.46875,19.7444766 307.783539,19.4296875 308.171875,19.4296875 L308.171875,19.4296875 Z M317.59375,20.8359375 L315.378906,20.8359375 L315.378906,22.59375 L317.59375,22.59375 L317.59375,20.8359375 Z M304.621094,20.8359375 L302.40625,20.8359375 L302.40625,22.59375 L304.621094,22.59375 L304.621094,20.8359375 Z M311.125,20.8359375 L308.875,20.8359375 L308.875,22.59375 L311.125,22.59375 L311.125,20.8359375 Z M311.828125,6 C312.216461,6 312.53125,6.31478906 312.53125,6.703125 L312.53125,6.703125 L312.53125,9.8671875 C312.53125,10.2555234 312.216461,10.5703125 311.828125,10.5703125 L311.828125,10.5703125 L310.703125,10.5703125 L310.703125,13.7695312 L314.394531,13.7695312 C315.945344,13.7695312 317.207031,15.0312187 317.207031,16.5820312 L317.207031,16.5820312 L317.207031,17.2797422 C317.207031,17.6680781 316.892242,17.9828672 316.503906,17.9828672 C316.11557,17.9828672 315.800781,17.6680781 315.800781,17.2797422 L315.800781,17.2797422 L315.800781,16.5820312 C315.800781,15.806625 315.169938,15.1757812 314.394531,15.1757812 L314.394531,15.1757812 L310.703125,15.1757812 L310.703125,17.2851562 C310.703125,17.6734922 310.388336,17.9882812 310,17.9882812 C309.611664,17.9882812 309.296875,17.6734922 309.296875,17.2851562 L309.296875,17.2851562 L309.296875,15.1757812 L305.605469,15.1757812 C304.830062,15.1757812 304.199219,15.806625 304.199219,16.5820312 L304.199219,16.5820312 L304.199219,17.2797422 C304.199219,17.6680781 303.88443,17.9828672 303.496094,17.9828672 C303.107758,17.9828672 302.792969,17.6680781 302.792969,17.2797422 L302.792969,17.2797422 L302.792969,16.5820312 C302.792969,15.0312187 304.054656,13.7695312 305.605469,13.7695312 L305.605469,13.7695312 L309.296875,13.7695312 L309.296875,10.5703125 L308.171875,10.5703125 C307.783539,10.5703125 307.46875,10.2555234 307.46875,9.8671875 L307.46875,9.8671875 L307.46875,6.703125 C307.46875,6.31478906 307.783539,6 308.171875,6 L308.171875,6 Z M311.125,7.40625 L308.875,7.40625 L308.875,9.1640625 L311.125,9.1640625 L311.125,7.40625 Z" transform="rotate(-90 156.5 162.5)"/></svg>