<svg xmlns="http://www.w3.org/2000/svg" width="14" height="16" viewBox="0 0 14 16"><path fill="currentColor" fill-rule="evenodd" d="M169,7 C169.55228,7 170,7.44772 170,8 L170,10.10125 C171.27009,8.80489 173.04052,8 175,8 C178.0494,8 180.641,9.94932 181.6014,12.66675 C181.7855,13.18747 181.5126,13.75879 180.9918,13.94284 C180.4711,14.12689 179.8998,13.85396 179.7157,13.33325 C179.0289,11.38991 177.1755,10 175,10 C173.36507,10 171.91204,10.78502 170.99935,12 L174,12 C174.55228,12 175,12.44772 175,13 C175,13.55228 174.55228,14 174,14 L169,14 C168.44772,14 168,13.55228 168,13 L168,8 C168,7.44772 168.44772,7 169,7 Z M169.00817,16.0572 C169.52888,15.8731 170.1002,16.146 170.28425,16.6668 C170.97112,18.6101 172.82453,20 175,20 C176.6349,20 178.088,19.215 179.0006,18 L176,18 C175.4477,18 175,17.5523 175,17 C175,16.4477 175.4477,16 176,16 L181,16 C181.2652,16 181.5196,16.1054 181.7071,16.2929 C181.8946,16.4804 182,16.7348 182,17 L182,22 C182,22.5523 181.5523,23 181,23 C180.4477,23 180,22.5523 180,22 L180,19.8987 C178.7299,21.1951 176.9595,22 175,22 C171.95059,22 169.35905,20.0507 168.39857,17.3332 C168.21452,16.8125 168.48745,16.2412 169.00817,16.0572 Z" transform="translate(-168 -7)"/></svg>