<svg xmlns="http://www.w3.org/2000/svg" width="10" height="10" viewBox="0 0 10 10">
  <defs>
    <linearGradient id="logout-a" x1="50%" x2="50%" y1="0%" y2="100%">
      <stop offset="0%" stop-color="#F1F9FF"/>
      <stop offset="100%" stop-color="#D6E2EA"/>
    </linearGradient>
  </defs>
  <path fill="url(#logout-a)" fill-rule="evenodd" d="M6.30982835,58 C6.42370853,58 6.51613303,58.095703 6.51613303,58.2136227 L6.51613303,58.2136227 L6.51613303,59.0002884 C6.51613303,59.1182081 6.42370853,59.2139111 6.30982835,59.2139111 L6.30982835,59.2139111 L1.17222314,59.2139111 L1.17222314,66.7863025 L6.30962205,66.7863025 C6.42370853,66.7863025 6.51592672,66.8817919 6.51592672,66.9999252 L6.51592672,66.9999252 L6.51592672,67.7863773 C6.51592672,67.904297 6.42360538,68 6.30962205,68 L6.30962205,68 L0.206304671,68 C0.0924244925,68 -9.01501096e-14,67.904297 -9.01501096e-14,67.7863773 L-9.01501096e-14,67.7863773 L-9.01501096e-14,58.2136227 C-9.01501096e-14,58.095703 0.0924244925,58 0.206304671,58 L0.206304671,58 Z M6.8704613,59.9736603 C6.94782555,59.8935518 7.08481185,59.893445 7.1621761,59.9736603 L7.1621761,59.9736603 L9.93924327,62.8490221 C9.9779254,62.8890764 9.99989685,62.9433366 10,63.0001602 C10,63.0566634 9.97823486,63.1111372 9.93955273,63.1511915 L9.93955273,63.1511915 L7.16248556,66.0265533 C7.12380343,66.0666076 7.07140205,66.0891448 7.01662816,66.0891448 C6.96206057,66.0891448 6.90945288,66.0666076 6.87077075,66.0265533 L6.87077075,66.0265533 L6.21193679,65.3441355 C6.13137481,65.2607158 6.13137481,65.1254927 6.21193679,65.042073 L6.21193679,65.042073 L7.46626919,63.7430332 L2.03591764,63.7430332 C1.92203746,63.7430332 1.82961297,63.6473303 1.82961297,63.5294105 L1.82961297,63.5294105 L1.82961297,62.4706963 C1.82961297,62.3527766 1.92203746,62.2570736 2.03591764,62.2570736 L2.03591764,62.2570736 L7.46595973,62.2570736 L6.21162733,60.9580338 C6.13106536,60.8746141 6.13106536,60.739391 6.21162733,60.6559713 L6.21162733,60.6559713 Z" transform="translate(0 -58)"/>
</svg>
