<svg xmlns="http://www.w3.org/2000/svg" width="10" height="11" viewBox="0 0 10 11">
  <defs>
    <linearGradient id="list-a" x1="50%" x2="50%" y1="0%" y2="100%">
      <stop offset="0%" stop-color="#F1F9FF"/>
      <stop offset="100%" stop-color="#D6E2EA"/>
    </linearGradient>
  </defs>
  <path fill="url(#list-a)" fill-rule="evenodd" d="M3.23046875,11.25 C3.90894531,11.25 4.4609375,11.8019922 4.4609375,12.4804688 C4.4609375,13.1589453 3.90894531,13.7109375 3.23046875,13.7109375 C2.55199219,13.7109375 2,13.1589453 2,12.4804688 C2,11.8019922 2.55199219,11.25 3.23046875,11.25 Z M11.0820312,11.5625 C11.5882031,11.5625 12,11.9742969 12,12.4804688 C12,12.9866406 11.5882031,13.3984375 11.0820312,13.3984375 L11.0820312,13.3984375 L6.04296875,13.3984375 C5.53679688,13.3984375 5.125,12.9866406 5.125,12.4804688 C5.125,11.9742969 5.53679688,11.5625 6.04296875,11.5625 L6.04296875,11.5625 Z M3.23046875,7.125 C3.90894531,7.125 4.4609375,7.67699219 4.4609375,8.35546875 C4.4609375,9.03394531 3.90894531,9.5859375 3.23046875,9.5859375 C2.55199219,9.5859375 2,9.03394531 2,8.35546875 C2,7.67699219 2.55199219,7.125 3.23046875,7.125 Z M11.0820313,7.4375 C11.5882031,7.4375 12,7.84929687 12,8.35546875 C12,8.86164062 11.5882031,9.2734375 11.0820313,9.2734375 L11.0820313,9.2734375 L6.04296875,9.2734375 C5.53679688,9.2734375 5.125,8.86164062 5.125,8.35546875 C5.125,7.84929687 5.53679688,7.4375 6.04296875,7.4375 L6.04296875,7.4375 Z M3.23046875,3 C3.90894531,3 4.4609375,3.55199219 4.4609375,4.23046875 C4.4609375,4.90894531 3.90894531,5.4609375 3.23046875,5.4609375 C2.55199219,5.4609375 2,4.90894531 2,4.23046875 C2,3.55199219 2.55199219,3 3.23046875,3 Z M11.0820313,3.3125 C11.5882031,3.3125 12,3.72429688 12,4.23046875 C12,4.73664063 11.5882031,5.1484375 11.0820313,5.1484375 L11.0820313,5.1484375 L6.04296875,5.1484375 C5.53679688,5.1484375 5.125,4.73664063 5.125,4.23046875 C5.125,3.72429688 5.53679688,3.3125 6.04296875,3.3125 L6.04296875,3.3125 Z" transform="translate(-2 -3)"/>
</svg>
