<svg xmlns="http://www.w3.org/2000/svg" width="10" height="10" viewBox="0 0 10 10">
  <defs>
    <linearGradient id="logs-a" x1="50%" x2="50%" y1="0%" y2="100%">
      <stop offset="0%" stop-color="#F1F9FF"/>
      <stop offset="100%" stop-color="#D6E2EA"/>
    </linearGradient>
  </defs>
  <path fill="url(#logs-a)" fill-rule="evenodd" d="M9.64279013,11.7195427 C9.73942208,11.7195427 9.82323232,11.7571912 9.89396676,11.8323633 C9.96460346,11.9075355 10,11.9967894 10,12.0997299 L10,12.0997299 L10,13.6198753 C10,13.7226909 9.96460346,13.8119449 9.89396676,13.8870962 C9.82325187,13.9622891 9.73944163,14 9.64280968,14 L9.64280968,14 L0.357190324,14 C0.260499734,14 0.176787222,13.9622683 0.106013697,13.8870962 C0.0353574444,13.8119241 1.0658141e-14,13.7226701 1.0658141e-14,13.6198753 L1.0658141e-14,13.6198753 L1.0658141e-14,12.0997299 C1.0658141e-14,11.9967894 0.0353574444,11.9075355 0.105994152,11.8323841 C0.176709041,11.757212 0.260382462,11.7195427 0.357170779,11.7195427 L0.357170779,11.7195427 Z M9.2858148,12.479709 L5.71443928,12.479709 L5.71443928,13.2399169 L9.2858148,13.2399169 L9.2858148,12.479709 Z M9.64279013,7.85981297 C9.73942208,7.85981297 9.82323232,7.89741984 9.89396676,7.97267518 C9.96460346,8.04788892 10,8.13695563 10,8.23985451 L10,8.23985451 L10,9.76008309 C10,9.86302357 9.96460346,9.95215268 9.89396676,10.027304 C9.82325187,10.102497 9.73944163,10.1402078 9.64280968,10.1402078 L9.64280968,10.1402078 L0.357190324,10.1402078 C0.260499734,10.1402078 0.176787222,10.1024762 0.106013697,10.027304 C0.0353574444,9.95213188 1.0658141e-14,9.86300277 1.0658141e-14,9.76008309 L1.0658141e-14,9.76008309 L1.0658141e-14,8.23985451 C1.0658141e-14,8.13695563 0.0353574444,8.04786812 0.105994152,7.97267518 C0.176709041,7.89744064 0.260382462,7.85981297 0.357170779,7.85981297 L0.357170779,7.85981297 Z M9.28554117,8.62000006 L3.57147325,8.62000006 L3.57147325,9.38010394 L9.28554117,9.38010394 L9.28554117,8.62000006 Z M9.64279013,4 C9.73944163,4 9.82325187,4.03769007 9.89394721,4.11282061 C9.96458392,4.18811755 10,4.27718426 10,4.38010394 L10,4.38010394 L10,5.90029092 C10,6.0032938 9.96460346,6.09238131 9.89396676,6.16757425 C9.82325187,6.24280879 9.73944163,6.28039486 9.64280968,6.28039486 L9.64280968,6.28039486 L0.357190324,6.28039486 C0.260499734,6.28039486 0.176787222,6.24280879 0.106013697,6.16757425 C0.0353574444,6.09238131 1.0658141e-14,6.0032938 1.0658141e-14,5.90029092 L1.0658141e-14,5.90029092 L1.0658141e-14,4.38010394 C1.0658141e-14,4.27718426 0.0353574444,4.18805515 0.105994152,4.11282061 C0.176709041,4.03769007 0.260382462,4 0.357170779,4 L0.357170779,4 Z M9.28554117,4.76014549 L7.14280968,4.76014549 L7.14280968,5.52033257 L9.28554117,5.52033257 L9.28554117,4.76014549 Z" transform="translate(0 -4)"/>
</svg>
