<svg xmlns="http://www.w3.org/2000/svg" width="18" height="14" viewBox="0 0 18 14"><path fill="currentColor" fill-rule="evenodd" d="M108.316216,8.05158219 C108.840217,8.22622528 109.123317,8.79252288 108.948717,9.31644215 L104.948691,21.3160174 C104.774051,21.8398966 104.20773,22.1230854 103.68378,21.9483923 C103.159839,21.7737993 102.876679,21.2074217 103.051329,20.6835424 L107.051314,8.68401717 C107.226015,8.1600979 107.792315,7.8769491 108.316216,8.05158219 Z M101.707117,11.2930339 C102.097638,11.6835385 102.097638,12.3166834 101.707117,12.707188 L99.414214,14.9999673 L101.707117,17.2927766 C102.097638,17.6832611 102.097638,18.3164361 101.707117,18.7069206 C101.316587,19.0975051 100.683426,19.0975051 100.292895,18.7069206 L97.2928911,15.7070393 C96.9023696,15.3165547 96.9023696,14.6834198 97.2928911,14.2929152 L100.292895,11.2930339 C100.683426,10.9025294 101.316587,10.9025294 101.707117,11.2930339 Z M110.292919,11.2930339 C110.683419,10.9025294 111.31662,10.9025294 111.707121,11.2930339 L114.707125,14.2929152 C115.097625,14.6834198 115.097625,15.3165547 114.707125,15.7070393 L111.707121,18.7069206 C111.31662,19.0975051 110.683419,19.0975051 110.292919,18.7069206 C109.902418,18.3164361 109.902418,17.6832611 110.292919,17.2927766 L112.585822,14.9999673 L110.292919,12.707188 C109.902418,12.3166834 109.902418,11.6835385 110.292919,11.2930339 Z" transform="translate(-97 -8)"/></svg>