<svg xmlns="http://www.w3.org/2000/svg" width="16" height="18" viewBox="0 0 16 18"><path fill="currentColor" fill-rule="evenodd" d="M243.50386,6.13175926 C243.81129,5.95608025 244.1887,5.95608025 244.4961,6.13175926 L246.2461,7.1317593 C246.7257,7.40576931 246.8923,8.01661933 246.6182,8.49613935 C246.3442,8.97565937 245.7334,9.14224938 245.2539,8.86823937 L244,8.15174934 L242.74614,8.86823937 C242.26662,9.14224938 241.65577,8.97565937 241.38176,8.49613935 C241.10775,8.01661933 241.27434,7.40576931 241.75386,7.1317593 L243.50386,6.13175926 Z M239.61824,9.5038594 C239.89225,9.98337942 239.72566,10.5942294 239.24614,10.8682395 L239.01556,10.9999995 L239.24614,11.1317595 C239.72566,11.4057695 239.89225,12.0166195 239.61824,12.4961395 C239.34423,12.9756595 238.73338,13.1422495 238.25386,12.8682395 L238,12.7231795 L238,12.9999995 C238,13.5522796 237.55228,13.9999996 237,13.9999996 C236.44772,13.9999996 236,13.5522796 236,12.9999995 L236,10.9999995 C236,10.7500094 236.09173,10.5214494 236.24336,10.3461394 C236.27802,10.3060294 236.31598,10.2685394 236.35699,10.2341094 C236.40754,10.1916294 236.46236,10.1540494 236.52071,10.1221294 L238.25386,9.13175938 C238.73338,8.85774937 239.34423,9.02433938 239.61824,9.5038594 Z M248.3818,9.5038594 C248.6558,9.02433938 249.2666,8.85774937 249.7461,9.13175938 L251.4793,10.1221194 C251.5376,10.1540494 251.5925,10.1916194 251.643,10.2341094 C251.8613,10.4175494 252,10.6925794 252,10.9999995 L252,12.9999995 C252,13.5522796 251.5523,13.9999996 251,13.9999996 C250.4477,13.9999996 250,13.5522796 250,12.9999995 L250,12.7231795 L249.7461,12.8682395 C249.2666,13.1422495 248.6558,12.9756595 248.3818,12.4961395 C248.1077,12.0166195 248.2743,11.4057695 248.7539,11.1317595 L248.9844,10.9999995 L248.7539,10.8682395 C248.2743,10.5942294 248.1077,9.98337942 248.3818,9.5038594 Z M241.38176,13.5038596 C241.65577,13.0243395 242.26662,12.8577495 242.74614,13.1317595 L244,13.8482496 L245.2539,13.1317595 C245.7334,12.8577495 246.3442,13.0243395 246.6182,13.5038596 C246.8923,13.9833796 246.7257,14.5942296 246.2461,14.8682396 L245,15.5802996 L245,16.9999997 C245,17.5522997 244.5523,17.9999997 244,17.9999997 C243.44772,17.9999997 243,17.5522997 243,16.9999997 L243,15.5802996 L241.75386,14.8682396 C241.27434,14.5942296 241.10775,13.9833796 241.38176,13.5038596 Z M237,15.9999997 C237.55228,15.9999997 238,16.4476997 238,16.9999997 L238,18.4196998 L239.24614,19.1317998 C239.72566,19.4057998 239.89225,20.0165998 239.61824,20.4960999 C239.34423,20.9756999 238.73338,21.1422999 238.25386,20.8681999 L236.50386,19.8681998 C236.19229,19.6901998 236,19.3588998 236,18.9999997 L236,16.9999997 C236,16.4476997 236.44772,15.9999997 237,15.9999997 Z M251,15.9999997 C251.5523,15.9999997 252,16.4476997 252,16.9999997 L252,18.9999997 C252,19.3588998 251.8077,19.6901998 251.4961,19.8681998 L249.7461,20.8681999 C249.2666,21.1422999 248.6558,20.9756999 248.3818,20.4960999 C248.1077,20.0165998 248.2743,19.4057998 248.7539,19.1317998 L250,18.4196998 L250,16.9999997 C250,16.4476997 250.4477,15.9999997 251,15.9999997 Z M241.38176,21.5038999 C241.65577,21.0242999 242.26662,20.8576999 242.74614,21.1317999 L243,21.2767999 L243,20.9999998 C243,20.4476999 243.44772,19.9999998 244,19.9999998 C244.5523,19.9999998 245,20.4476999 245,20.9999998 L245,21.2767999 L245.2539,21.1317999 C245.7334,20.8576999 246.3442,21.0242999 246.6182,21.5038999 C246.8923,21.9833999 246.7257,22.5941999 246.2461,22.8682 L244.5113,23.8596 C244.3617,23.9488 244.1868,23.9999998 244,23.9999998 C243.81316,23.9999998 243.63828,23.9488 243.48866,23.8596 L241.75386,22.8682 C241.27434,22.5941999 241.10775,21.9833999 241.38176,21.5038999 Z" transform="translate(-236 -6)"/></svg>