<svg width="16" height="16" viewBox="0 0 16 16" fill="none" xmlns="http://www.w3.org/2000/svg">
<g filter="url(#filter0_d)">
<path fill-rule="evenodd" clip-rule="evenodd" d="M13.8189 4.35503C14.1096 4.24673 14.4342 4.39081 14.5443 4.6767C15.1888 6.35118 15.1485 8.18012 14.4308 9.82602C13.6943 11.5159 12.333 12.8224 10.5974 13.5048C8.86208 14.187 6.96057 14.1636 5.24294 13.4391C4.74515 13.2291 4.28004 12.9674 3.85373 12.6602C2.80877 11.9073 1.9963 10.8803 1.50366 9.66793C0.809914 7.96068 0.833551 6.08971 1.57021 4.40002C2.30698 2.71028 3.66834 1.40397 5.40361 0.721502C7.12205 0.045759 9.00351 0.0623474 10.7079 0.766469L11.0924 0.127783C11.2018 -0.0543051 11.3503 -0.0399975 11.4223 0.159242L12.0649 1.93809C12.1369 2.1373 12.0219 2.32815 11.8097 2.36189L9.91541 2.66274C9.70331 2.69651 9.61912 2.57506 9.72866 2.39306L10.1274 1.73055C8.73604 1.19718 7.21494 1.20147 5.82146 1.74937C4.36516 2.32214 3.22255 3.41846 2.60438 4.83636C1.98624 6.25447 1.96655 7.8243 2.54868 9.25692C2.96198 10.2742 3.64395 11.1361 4.52065 11.768C4.87851 12.0258 5.26857 12.2454 5.6865 12.4217C7.12777 13.0298 8.72354 13.0493 10.1798 12.4767C11.6362 11.904 12.7785 10.8077 13.3967 9.38984C13.9989 8.00843 14.0328 6.47388 13.492 5.06857C13.3819 4.78266 13.5284 4.46306 13.8189 4.35503ZM7.29769 3.14135C7.29769 2.89373 7.50172 2.69316 7.7532 2.69316C8.00501 2.69316 8.20889 2.89373 8.20892 3.14135V7.06105L11.8672 8.92163C12.091 9.03538 12.1783 9.30568 12.0629 9.52559C11.9819 9.67975 11.8227 9.76799 11.6578 9.76799C11.5874 9.76814 11.5159 9.752 11.4491 9.71799L7.29769 7.60675V3.14135Z" fill="url(#paint0_linear)"/>
<path fill-rule="evenodd" clip-rule="evenodd" d="M13.8189 4.35503C14.1096 4.24673 14.4342 4.39081 14.5443 4.6767C15.1888 6.35118 15.1485 8.18012 14.4308 9.82602C13.6943 11.5159 12.333 12.8224 10.5974 13.5048C8.86208 14.187 6.96057 14.1636 5.24294 13.4391C4.74515 13.2291 4.28004 12.9674 3.85373 12.6602C2.80877 11.9073 1.9963 10.8803 1.50366 9.66793C0.809914 7.96068 0.833551 6.08971 1.57021 4.40002C2.30698 2.71028 3.66834 1.40397 5.40361 0.721502C7.12205 0.045759 9.00351 0.0623474 10.7079 0.766469L11.0924 0.127783C11.2018 -0.0543051 11.3503 -0.0399975 11.4223 0.159242L12.0649 1.93809C12.1369 2.1373 12.0219 2.32815 11.8097 2.36189L9.91541 2.66274C9.70331 2.69651 9.61912 2.57506 9.72866 2.39306L10.1274 1.73055C8.73604 1.19718 7.21494 1.20147 5.82146 1.74937C4.36516 2.32214 3.22255 3.41846 2.60438 4.83636C1.98624 6.25447 1.96655 7.8243 2.54868 9.25692C2.96198 10.2742 3.64395 11.1361 4.52065 11.768C4.87851 12.0258 5.26857 12.2454 5.6865 12.4217C7.12777 13.0298 8.72354 13.0493 10.1798 12.4767C11.6362 11.904 12.7785 10.8077 13.3967 9.38984C13.9989 8.00843 14.0328 6.47388 13.492 5.06857C13.3819 4.78266 13.5284 4.46306 13.8189 4.35503ZM7.29769 3.14135C7.29769 2.89373 7.50172 2.69316 7.7532 2.69316C8.00501 2.69316 8.20889 2.89373 8.20892 3.14135V7.06105L11.8672 8.92163C12.091 9.03538 12.1783 9.30568 12.0629 9.52559C11.9819 9.67975 11.8227 9.76799 11.6578 9.76799C11.5874 9.76814 11.5159 9.752 11.4491 9.71799L7.29769 7.60675V3.14135Z" fill="url(#paint1_linear)"/>
</g>
<defs>
<filter id="filter0_d" x="0" y="0" width="16" height="16" filterUnits="userSpaceOnUse" color-interpolation-filters="sRGB">
<feFlood flood-opacity="0" result="BackgroundImageFix"/>
<feColorMatrix in="SourceAlpha" type="matrix" values="0 0 0 0 0 0 0 0 0 0 0 0 0 0 0 0 0 0 127 0"/>
<feOffset dy="1"/>
<feGaussianBlur stdDeviation="0.5"/>
<feColorMatrix type="matrix" values="0 0 0 0 0 0 0 0 0 0 0 0 0 0 0 0 0 0 0.21 0"/>
<feBlend mode="normal" in2="BackgroundImageFix" result="effect1_dropShadow"/>
<feBlend mode="normal" in="SourceGraphic" in2="effect1_dropShadow" result="shape"/>
</filter>
<linearGradient id="paint0_linear" x1="1" y1="0" x2="1" y2="14" gradientUnits="userSpaceOnUse">
<stop stop-color="#F1F9FF"/>
<stop offset="1" stop-color="#D6E2EA"/>
</linearGradient>
<linearGradient id="paint1_linear" x1="7.58235" y1="0" x2="7.58235" y2="0.835299" gradientUnits="userSpaceOnUse">
<stop stop-color="#C1D1DE" stop-opacity="0.4"/>
<stop offset="1" stop-color="#C1D1DE" stop-opacity="0.01"/>
</linearGradient>
</defs>
</svg>
