<svg xmlns="http://www.w3.org/2000/svg" width="14" height="12" viewBox="0 0 14 12">
  <defs>
    <linearGradient id="units-a" x1="50%" x2="50%" y1="0%" y2="100%">
      <stop offset="0%" stop-color="#F1F9FF"/>
      <stop offset="100%" stop-color="#D6E2EA"/>
    </linearGradient>
  </defs>
  <path fill="url(#units-a)" fill-rule="evenodd" d="M10.109375,29.75 C11.0397657,29.75 11.8230724,30.4277289 11.9744448,31.3352987 L11.9937391,31.4886117 L12,31.640625 L12,33.453 L13.039501,34.4917679 C13.2281265,34.6804136 13.2919531,34.9512291 13.2160366,35.2050182 L13.1749017,35.3124534 L13.116394,35.4160684 L13.0394915,35.508222 L12,36.546 L12,38.359375 C12,39.2350302 11.3996639,39.9804074 10.5723873,40.1912702 L10.4147046,40.2244444 L10.2613911,40.243739 L10.109375,40.25 L9.25,40.25 C8.85304209,40.25 8.53125,39.9282079 8.53125,39.53125 C8.53125,39.2172651 8.73388028,38.945577 9.03831315,38.847232 L9.14342292,38.8210502 L9.25,38.8125 L10.109375,38.8125 C10.3077695,38.8125 10.4795427,38.6830899 10.5385188,38.5129669 L10.556637,38.437823 L10.5625,38.359375 L10.5625,36.25 C10.5625,36.1433529 10.5862214,36.0386687 10.6374303,35.9349088 L10.6979413,35.8314185 L10.773028,35.7417585 L11.514,35 L10.7729888,34.2582219 C10.7227255,34.2079474 10.6805304,34.1508375 10.6469759,34.0858851 L10.6031961,33.9824485 L10.5728062,33.8664927 L10.5625,33.75 L10.5625,31.640625 C10.5625,31.4422305 10.4330899,31.2704573 10.2629669,31.2114812 L10.187823,31.193363 L10.109375,31.1875 L9.25,31.1875 C8.85304209,31.1875 8.53125,30.8657079 8.53125,30.46875 C8.53125,30.1547651 8.73388028,29.883077 9.03831315,29.784732 L9.14342292,29.7585502 L9.25,29.75 L10.109375,29.75 Z M4.75,29.75 C5.14695791,29.75 5.46875,30.0717921 5.46875,30.46875 C5.46875,30.7827349 5.26611972,31.054423 4.96168685,31.152768 L4.85657708,31.1789498 L4.75,31.1875 L3.890625,31.1875 C3.69223052,31.1875 3.52045732,31.3169101 3.46148124,31.4870331 L3.44336297,31.562177 L3.4375,31.640625 L3.4375,33.75 C3.4375,33.8566471 3.4137786,33.9613313 3.36256967,34.0650912 L3.30205874,34.1685815 L3.22697201,34.2582415 L2.485,34.999 L3.22701118,35.7417781 C3.27727455,35.7920526 3.31946957,35.8491625 3.35302407,35.9141149 L3.3968039,36.0175515 L3.4271938,36.1335073 L3.4375,36.25 L3.4375,38.359375 C3.4375,38.5577695 3.5669101,38.7295427 3.73703311,38.7885188 L3.812177,38.806637 L3.890625,38.8125 L4.75,38.8125 C5.14695791,38.8125 5.46875,39.1342921 5.46875,39.53125 C5.46875,39.8452349 5.26611972,40.116923 4.96168685,40.215268 L4.85657708,40.2414498 L4.75,40.25 L3.890625,40.25 C2.96023425,40.25 2.17692758,39.5722711 2.02555521,38.6647013 L2.00626087,38.5113883 L2,38.359375 L2,36.547 L0.960508461,35.508222 C0.771861771,35.3195753 0.708027951,35.0487628 0.783950683,34.79497 L0.825089089,34.6875329 L0.883601946,34.5839148 L0.960510012,34.4917569 L2,33.452 L2,31.640625 C2,30.7649698 2.60033605,30.0195926 3.42761273,29.8087298 L3.5852954,29.7755556 L3.73860889,29.756261 L3.890625,29.75 L4.75,29.75 Z" transform="translate(0 -29)"/>
</svg>
