<svg width="11" height="10" viewBox="0 0 11 10" fill="none" xmlns="http://www.w3.org/2000/svg">
<path fill-rule="evenodd" clip-rule="evenodd" d="M7.57444 0.369263C8.32762 0.369263 8.96172 0.960103 9.08426 1.75132L9.09988 1.88498L9.10495 2.0175V3.59752L9.94645 4.50311C10.0991 4.66757 10.1508 4.90367 10.0894 5.12492L10.0561 5.21858L10.0087 5.30891L9.94644 5.38925L9.10495 6.29398V7.87487C9.10495 8.63826 8.61896 9.28808 7.94926 9.47191L7.82161 9.50083L7.6975 9.51765L7.57444 9.52311H6.87876C6.55741 9.52311 6.29691 9.24257 6.29691 8.89651C6.29691 8.62278 6.46095 8.38592 6.70739 8.30018L6.79248 8.27736L6.87876 8.2699H7.57444C7.73505 8.2699 7.8741 8.15708 7.92184 8.00877L7.93651 7.94326L7.94126 7.87487V6.03593C7.94126 5.94296 7.96046 5.85169 8.00192 5.76123L8.0509 5.67101L8.11168 5.59285L8.71152 4.94619L8.11165 4.29951C8.07096 4.25568 8.03681 4.20589 8.00964 4.14927L7.9742 4.05909L7.9496 3.958L7.94126 3.85644V2.0175C7.94126 1.84454 7.8365 1.69479 7.69878 1.64337L7.63795 1.62758L7.57444 1.62247H6.87876C6.55741 1.62247 6.29691 1.34193 6.29691 0.995865C6.29691 0.722135 6.46095 0.485279 6.70739 0.399542L6.79248 0.376717L6.87876 0.369263H7.57444ZM3.2359 0.369263C3.55725 0.369263 3.81775 0.649799 3.81775 0.995865C3.81775 1.2696 3.65371 1.50645 3.40727 1.59219L3.32218 1.61501L3.2359 1.62247H2.54022C2.37961 1.62247 2.24056 1.73529 2.19281 1.8836L2.17815 1.94911L2.1734 2.0175V3.85644C2.1734 3.94942 2.1542 4.04068 2.11274 4.13114L2.06376 4.22136L2.00297 4.29952L1.40233 4.94531L2.00301 5.59286C2.04369 5.63669 2.07785 5.68648 2.10502 5.74311L2.14046 5.83328L2.16506 5.93437L2.1734 6.03593V7.87487C2.1734 8.04783 2.27816 8.19758 2.41588 8.249L2.47671 8.26479L2.54022 8.2699H3.2359C3.55725 8.2699 3.81775 8.55044 3.81775 8.89651C3.81775 9.17024 3.65371 9.40709 3.40727 9.49283L3.32218 9.51565L3.2359 9.52311H2.54022C1.78704 9.52311 1.15294 8.93227 1.0304 8.14105L1.01478 8.0074L1.00971 7.87487V6.29485L0.168217 5.38925C0.0155032 5.22479 -0.0361718 4.9887 0.0252895 4.76744L0.058592 4.67378L0.10596 4.58344L0.168218 4.5031L1.00971 3.59665V2.0175C1.00971 1.25411 1.4957 0.604292 2.1654 0.420463L2.29304 0.391542L2.41716 0.374721L2.54022 0.369263H3.2359Z" fill="#333C45"/>
<path fill-rule="evenodd" clip-rule="evenodd" d="M7.57444 0.369263C8.32762 0.369263 8.96172 0.960103 9.08426 1.75132L9.09988 1.88498L9.10495 2.0175V3.59752L9.94645 4.50311C10.0991 4.66757 10.1508 4.90367 10.0894 5.12492L10.0561 5.21858L10.0087 5.30891L9.94644 5.38925L9.10495 6.29398V7.87487C9.10495 8.63826 8.61896 9.28808 7.94926 9.47191L7.82161 9.50083L7.6975 9.51765L7.57444 9.52311H6.87876C6.55741 9.52311 6.29691 9.24257 6.29691 8.89651C6.29691 8.62278 6.46095 8.38592 6.70739 8.30018L6.79248 8.27736L6.87876 8.2699H7.57444C7.73505 8.2699 7.8741 8.15708 7.92184 8.00877L7.93651 7.94326L7.94126 7.87487V6.03593C7.94126 5.94296 7.96046 5.85169 8.00192 5.76123L8.0509 5.67101L8.11168 5.59285L8.71152 4.94619L8.11165 4.29951C8.07096 4.25568 8.03681 4.20589 8.00964 4.14927L7.9742 4.05909L7.9496 3.958L7.94126 3.85644V2.0175C7.94126 1.84454 7.8365 1.69479 7.69878 1.64337L7.63795 1.62758L7.57444 1.62247H6.87876C6.55741 1.62247 6.29691 1.34193 6.29691 0.995865C6.29691 0.722135 6.46095 0.485279 6.70739 0.399542L6.79248 0.376717L6.87876 0.369263H7.57444ZM3.2359 0.369263C3.55725 0.369263 3.81775 0.649799 3.81775 0.995865C3.81775 1.2696 3.65371 1.50645 3.40727 1.59219L3.32218 1.61501L3.2359 1.62247H2.54022C2.37961 1.62247 2.24056 1.73529 2.19281 1.8836L2.17815 1.94911L2.1734 2.0175V3.85644C2.1734 3.94942 2.1542 4.04068 2.11274 4.13114L2.06376 4.22136L2.00297 4.29952L1.40233 4.94531L2.00301 5.59286C2.04369 5.63669 2.07785 5.68648 2.10502 5.74311L2.14046 5.83328L2.16506 5.93437L2.1734 6.03593V7.87487C2.1734 8.04783 2.27816 8.19758 2.41588 8.249L2.47671 8.26479L2.54022 8.2699H3.2359C3.55725 8.2699 3.81775 8.55044 3.81775 8.89651C3.81775 9.17024 3.65371 9.40709 3.40727 9.49283L3.32218 9.51565L3.2359 9.52311H2.54022C1.78704 9.52311 1.15294 8.93227 1.0304 8.14105L1.01478 8.0074L1.00971 7.87487V6.29485L0.168217 5.38925C0.0155032 5.22479 -0.0361718 4.9887 0.0252895 4.76744L0.058592 4.67378L0.10596 4.58344L0.168218 4.5031L1.00971 3.59665V2.0175C1.00971 1.25411 1.4957 0.604292 2.1654 0.420463L2.29304 0.391542L2.41716 0.374721L2.54022 0.369263H3.2359Z" fill="black" fill-opacity="0.5" style="mix-blend-mode:color"/>
<path fill-rule="evenodd" clip-rule="evenodd" d="M7.57444 0.369263C8.32762 0.369263 8.96172 0.960103 9.08426 1.75132L9.09988 1.88498L9.10495 2.0175V3.59752L9.94645 4.50311C10.0991 4.66757 10.1508 4.90367 10.0894 5.12492L10.0561 5.21858L10.0087 5.30891L9.94644 5.38925L9.10495 6.29398V7.87487C9.10495 8.63826 8.61896 9.28808 7.94926 9.47191L7.82161 9.50083L7.6975 9.51765L7.57444 9.52311H6.87876C6.55741 9.52311 6.29691 9.24257 6.29691 8.89651C6.29691 8.62278 6.46095 8.38592 6.70739 8.30018L6.79248 8.27736L6.87876 8.2699H7.57444C7.73505 8.2699 7.8741 8.15708 7.92184 8.00877L7.93651 7.94326L7.94126 7.87487V6.03593C7.94126 5.94296 7.96046 5.85169 8.00192 5.76123L8.0509 5.67101L8.11168 5.59285L8.71152 4.94619L8.11165 4.29951C8.07096 4.25568 8.03681 4.20589 8.00964 4.14927L7.9742 4.05909L7.9496 3.958L7.94126 3.85644V2.0175C7.94126 1.84454 7.8365 1.69479 7.69878 1.64337L7.63795 1.62758L7.57444 1.62247H6.87876C6.55741 1.62247 6.29691 1.34193 6.29691 0.995865C6.29691 0.722135 6.46095 0.485279 6.70739 0.399542L6.79248 0.376717L6.87876 0.369263H7.57444ZM3.2359 0.369263C3.55725 0.369263 3.81775 0.649799 3.81775 0.995865C3.81775 1.2696 3.65371 1.50645 3.40727 1.59219L3.32218 1.61501L3.2359 1.62247H2.54022C2.37961 1.62247 2.24056 1.73529 2.19281 1.8836L2.17815 1.94911L2.1734 2.0175V3.85644C2.1734 3.94942 2.1542 4.04068 2.11274 4.13114L2.06376 4.22136L2.00297 4.29952L1.40233 4.94531L2.00301 5.59286C2.04369 5.63669 2.07785 5.68648 2.10502 5.74311L2.14046 5.83328L2.16506 5.93437L2.1734 6.03593V7.87487C2.1734 8.04783 2.27816 8.19758 2.41588 8.249L2.47671 8.26479L2.54022 8.2699H3.2359C3.55725 8.2699 3.81775 8.55044 3.81775 8.89651C3.81775 9.17024 3.65371 9.40709 3.40727 9.49283L3.32218 9.51565L3.2359 9.52311H2.54022C1.78704 9.52311 1.15294 8.93227 1.0304 8.14105L1.01478 8.0074L1.00971 7.87487V6.29485L0.168217 5.38925C0.0155032 5.22479 -0.0361718 4.9887 0.0252895 4.76744L0.058592 4.67378L0.10596 4.58344L0.168218 4.5031L1.00971 3.59665V2.0175C1.00971 1.25411 1.4957 0.604292 2.1654 0.420463L2.29304 0.391542L2.41716 0.374721L2.54022 0.369263H3.2359Z" fill="black" fill-opacity="0.42" style="mix-blend-mode:multiply"/>
</svg>
