<svg xmlns="http://www.w3.org/2000/svg" width="20" height="18" viewBox="0 0 20 18">
  <path fill="none" stroke="currentColor" stroke-linecap="round" stroke-linejoin="round" stroke-width="2" d="M1.87104,0 C0.67341,2.40992 0,5.12632 0,8 C0,10.8737 0.67341,13.5901 1.87104,16 M16.0001,16 C17.1977,13.5901 17.8711,10.8737 17.8711,8 C17.8711,5.12632 17.1977,2.40992 16.0001,0 M6,5 L7.2457,5 C7.6922,5 8.0846,5.29598 8.2072,5.72528 L9.7928,11.2747 C9.9154,11.704 10.3078,12 10.7543,12 L12,12 M13,5 L12.9199,5 C12.336,5 11.7813,5.25513 11.4014,5.69842 L6.59864,11.3016 C6.21868,11.7449 5.66398,12 5.08013,12 L5,12" transform="translate(1 1)"/>
</svg>
