<svg xmlns="http://www.w3.org/2000/svg" width="10" height="9" viewBox="0 0 10 9">
  <path fill="#1F2124" fill-rule="evenodd" d="M5.2457,2 C6.08289729,2 6.82501038,2.52031403 7.11653076,3.29277577 L7.16872159,3.45055063 L7.45,4.437 L8.6420902,3.0476907 C9.16814399,2.43385973 9.91759963,2.0605483 10.7186594,2.00674791 L10.9199,2 L11,2 C11.5522847,2 12,2.44771525 12,3 C12,3.51283584 11.6139598,3.93550716 11.1166211,3.99327227 L11,4 L10.9199,4 C10.6696495,4 10.4301527,4.09371152 10.2472042,4.2600753 L10.1606543,4.34921405 L8.109,6.742 L8.75435775,9.0000972 L10,9 C10.5522847,9 11,9.44771525 11,10 C11,10.5128358 10.6139598,10.9355072 10.1166211,10.9932723 L10,11 L8.7543,11 C7.91710073,11 7.17498886,10.4796666 6.88346912,9.70720412 L6.83127841,9.54942937 L6.549,8.562 L5.35790627,9.95238009 C4.83181006,10.5661775 4.08237427,10.939457 3.28135899,10.9932527 L3.08013,11 L3,11 C2.44771525,11 2,10.5522847 2,10 C2,9.48716416 2.38604019,9.06449284 2.88337887,9.00672773 L3,9 L3.08013,9 C3.33036834,9 3.56987478,8.90628863 3.75283177,8.73993736 L3.83938569,8.65080595 L5.89,6.257 L5.245,4 L4,4 C3.48716416,4 3.06449284,3.61395981 3.00672773,3.11662113 L3,3 C3,2.48716416 3.38604019,2.06449284 3.88337887,2.00672773 L4,2 L5.2457,2 Z" transform="translate(-2 -2)"/>
</svg>
