<svg width="11" height="12" viewBox="0 0 11 12" fill="none" xmlns="http://www.w3.org/2000/svg"><path fill="currentColor" d="M10.3703 2.87084L5.4484 0.0466172C5.34005 -0.0155391 5.2068 -0.0155391 5.09845 0.0466172L0.176578 2.87084C0.0673594 2.93353 0 3.04985 0 3.17578V8.82422C0 8.95015 0.0673594 9.06647 0.176602 9.12916L5.09848 11.9534C5.15266 11.9845 5.21306 12 5.27344 12C5.33381 12 5.39423 11.9845 5.4484 11.9534L10.3703 9.12916C10.4795 9.06647 10.5469 8.95015 10.5469 8.82422V3.17578C10.5469 3.04985 10.4795 2.93353 10.3703 2.87084ZM6.09375 9.04688H4.45312C4.25897 9.04688 4.10156 8.88947 4.10156 8.69531C4.10156 8.50116 4.25897 8.34375 4.45312 8.34375H6.09375C6.28791 8.34375 6.44531 8.50116 6.44531 8.69531C6.44531 8.88947 6.28791 9.04688 6.09375 9.04688ZM7.49709 5.63789C7.43998 5.76328 7.31491 5.84374 7.17715 5.84374H6.44531V7.52344C6.44531 7.71759 6.28791 7.875 6.09375 7.875H4.45312C4.25897 7.875 4.10156 7.71759 4.10156 7.52344V5.84374H3.36973C3.23196 5.84374 3.10688 5.76326 3.04978 5.63789C2.99269 5.5125 3.01409 5.36531 3.10453 5.26139L5.00824 3.0739C5.07502 2.99716 5.17174 2.95312 5.27344 2.95312C5.37513 2.95312 5.47186 2.99716 5.53863 3.07388L7.44234 5.26137C7.53279 5.36531 7.55421 5.5125 7.49709 5.63789Z"/></svg>